<svg width="259" height="55" viewBox="0 0 259 55" fill="none" xmlns="http://www.w3.org/2000/svg">
<path d="M40.5563 38.0298L36.854 31.5894M40.5563 38.0298H22.8935L26.5957 31.5894H36.854M40.5563 38.0298H48.8478L45.107 31.5894L35.8128 15.5464M36.854 31.5894L31.7249 22.6809L27.637 15.5464M35.8128 15.5464L31.6863 8.45042L27.4827 1.2002L6.31055 38.0298H14.7177L18.42 31.5894L27.637 15.5464M35.8128 15.5464H27.637" stroke="white" stroke-width="1.15695" stroke-miterlimit="10" stroke-linecap="round" stroke-linejoin="round"/>
<path d="M232.769 0.850098C235.414 0.850098 237.909 1.36031 240.252 2.38074C242.595 3.36338 244.636 4.72396 246.375 6.46247C248.151 8.20098 249.53 10.2418 250.513 12.585C251.533 14.9283 252.044 17.4226 252.044 20.0682C252.044 22.7138 251.533 25.2082 250.513 27.5514C249.53 29.8568 248.151 31.8787 246.375 33.6173C244.636 35.3558 242.595 36.7352 240.252 37.7557C237.909 38.7383 235.414 39.2296 232.769 39.2296C230.123 39.2296 227.629 38.7383 225.286 37.7557C222.98 36.7352 220.958 35.3558 219.22 33.6173C217.481 31.8787 216.102 29.8568 215.081 27.5514C214.099 25.2082 213.607 22.7138 213.607 20.0682C213.607 17.4226 214.099 14.9283 215.081 12.585C216.102 10.2418 217.481 8.20098 219.22 6.46247C220.958 4.72396 222.98 3.36338 225.286 2.38074C227.629 1.36031 230.123 0.850098 232.769 0.850098ZM232.769 31.2363C234.318 31.2363 235.773 30.9528 237.134 30.3859C238.532 29.7812 239.742 28.9875 240.762 28.0049C241.783 26.9845 242.576 25.794 243.143 24.4334C243.748 23.0728 244.05 21.6178 244.05 20.0682C244.05 18.5187 243.748 17.0636 243.143 15.703C242.576 14.3425 241.783 13.152 240.762 12.1315C239.742 11.1111 238.532 10.3174 237.134 9.75052C235.773 9.14582 234.318 8.84347 232.769 8.84347C231.219 8.84347 229.764 9.14582 228.404 9.75052C227.081 10.3174 225.909 11.1111 224.889 12.1315C223.868 13.152 223.056 14.3425 222.451 15.703C221.884 17.0636 221.601 18.5187 221.601 20.0682C221.601 21.6178 221.884 23.0728 222.451 24.4334C223.056 25.794 223.868 26.9845 224.889 28.0049C225.909 28.9875 227.081 29.7812 228.404 30.3859C229.764 30.9528 231.219 31.2363 232.769 31.2363Z" fill="white"/>
<path d="M201.191 0.793457L201.247 39.2297H193.254V0.793457H201.191ZM214.91 31.2363V39.2297H202.665V31.2363H214.91Z" fill="white"/>
<path d="M176.136 31.2363C177.157 31.2363 178.007 30.8961 178.687 30.2158C179.406 29.4977 179.765 28.6285 179.765 27.6081C179.765 26.6254 179.406 25.7751 178.687 25.057C178.007 24.3389 177.157 23.9799 176.136 23.9799H166.952V16.0432H176.136C177.157 16.0432 178.007 15.703 178.687 15.0227C179.406 14.3047 179.765 13.4354 179.765 12.415C179.765 11.3945 179.406 10.5442 178.687 9.8639C178.007 9.18362 177.157 8.84347 176.136 8.84347H166.952V0.850098H176.136C177.875 0.850098 179.462 1.19024 180.898 1.87053C182.335 2.51302 183.544 3.38228 184.527 4.4783C185.547 5.53652 186.322 6.76482 186.851 8.16318C187.418 9.56155 187.701 11.0166 187.701 12.5284C187.701 13.8133 187.474 15.1172 187.021 16.44C186.605 17.7628 185.925 18.9722 184.98 20.0682C185.963 21.1642 186.662 22.3547 187.078 23.6397C187.493 24.9247 187.701 26.2286 187.701 27.5514C187.701 29.0631 187.418 30.5182 186.851 31.9165C186.322 33.3149 185.547 34.5621 184.527 35.6581C183.544 36.7163 182.335 37.5856 180.898 38.2659C179.462 38.9084 177.875 39.2296 176.136 39.2296H166.952V31.2363H176.136ZM157.712 0.850098H165.705V39.2296H157.712V0.850098Z" fill="white"/>
<path d="M150.188 0V39.2299H142.252V19.8984L134.315 27.3249V16.1568L150.188 0ZM133.011 16.1568V27.3249L125.074 19.8984V39.2299H117.138V0L133.011 16.1568Z" fill="white"/>
<path d="M86.5723 0.850098H94.5656V39.2296H86.5723V0.850098ZM111.856 31.2363V39.2296H95.9829V31.2363H111.856ZM111.856 0.850098V8.84347H95.9829V0.850098H111.856ZM109.305 16.0432V23.9799H95.9829V16.0432H109.305Z" fill="white"/>
<path d="M80.6637 8.78678H63.8832C62.8628 8.78678 61.9936 9.14582 61.2755 9.8639C60.5952 10.5442 60.255 11.3945 60.255 12.415C60.255 13.4354 60.5952 14.3047 61.2755 15.0227C61.9936 15.703 62.8628 16.0432 63.8832 16.0432H70.346C71.9333 16.0432 73.4262 16.3644 74.8245 17.0069C76.2607 17.6116 77.489 18.4431 78.5094 19.5013C79.5676 20.5217 80.3991 21.7311 81.0038 23.1295C81.6463 24.5279 81.9675 26.0207 81.9675 27.6081C81.9675 29.1954 81.6463 30.7071 81.0038 32.1433C80.3991 33.5417 79.5676 34.77 78.5094 35.8282C77.489 36.8486 76.2607 37.6801 74.8245 38.3226C73.4262 38.9273 71.9333 39.2296 70.346 39.2296H52.7152V31.2363H70.346C71.3664 31.2363 72.2168 30.8961 72.897 30.2158C73.6151 29.4977 73.9742 28.6285 73.9742 27.6081C73.9742 26.6254 73.6151 25.7751 72.897 25.057C72.2168 24.3389 71.3664 23.9799 70.346 23.9799H63.8832C62.2959 23.9799 60.8031 23.6775 59.4047 23.0728C58.0063 22.4681 56.778 21.6555 55.7198 20.6351C54.6994 19.5769 53.8679 18.3486 53.2254 16.9502C52.6207 15.5519 52.3184 14.0401 52.3184 12.415C52.3184 10.8276 52.6207 9.33479 53.2254 7.93642C53.8679 6.50026 54.6994 5.27196 55.7198 4.25153C56.778 3.19331 58.0063 2.36185 59.4047 1.75715C60.8031 1.15245 62.2959 0.850098 63.8832 0.850098H80.6637V8.78678Z" fill="white"/>
<path d="M10.0577 54.3534C7.52788 54.3534 5.98528 53.4525 5.98528 51.3546V51.2805H8.30535V51.5397C8.30535 52.095 8.5028 52.2431 10.0577 52.2431C11.4646 52.2431 11.6127 52.132 11.6127 51.7618C11.6127 51.4656 11.4523 51.3422 10.7735 51.2558L8.18194 50.9103C6.63934 50.7005 5.86187 49.8737 5.86187 48.5409C5.86187 47.2204 6.88616 45.8382 9.87263 45.8382C12.5012 45.8382 13.76 46.9859 13.76 48.837V48.9111H11.4399V48.726C11.4399 48.1336 11.1808 47.9362 9.62582 47.9362C8.4411 47.9362 8.18194 48.0966 8.18194 48.4545C8.18194 48.7136 8.33003 48.837 8.7743 48.8988L11.3659 49.2813C13.3898 49.5775 13.9328 50.6141 13.9328 51.6754C13.9328 53.0946 12.8468 54.3534 10.0577 54.3534ZM40.5345 54.3534C37.6591 54.3534 35.9561 52.675 35.9561 50.0958C35.9561 47.5166 37.6591 45.8382 40.5345 45.8382C43.484 45.8382 45.1623 47.5166 45.1623 50.0958C45.1623 52.675 43.484 54.3534 40.5345 54.3534ZM40.5345 52.132C42.2129 52.132 42.6942 51.7371 42.6942 50.0958C42.6942 48.4545 42.2129 48.0596 40.5345 48.0596C38.8562 48.0596 38.4242 48.4545 38.4242 50.0958C38.4242 51.7371 38.8562 52.132 40.5345 52.132ZM74.4734 54.23H67.3774V45.9616H69.6975V52.1444H74.4734V54.23ZM100.858 54.3534C97.9703 54.3534 96.6375 52.9589 96.6375 50.7622V45.9616H98.9575V50.5771C98.9575 51.7495 99.2907 52.1074 100.858 52.1074C102.425 52.1074 102.759 51.7495 102.759 50.5771V45.9616H105.079V50.7622C105.079 52.9589 103.746 54.3534 100.858 54.3534ZM132.43 54.23H130.11V48.0472H127.185V45.9616H135.342V48.0472H132.43V54.23ZM159.819 54.23H157.499V45.9616H159.819V54.23ZM186.612 54.3534C183.736 54.3534 182.033 52.675 182.033 50.0958C182.033 47.5166 183.736 45.8382 186.612 45.8382C189.561 45.8382 191.239 47.5166 191.239 50.0958C191.239 52.675 189.561 54.3534 186.612 54.3534ZM186.612 52.132C188.29 52.132 188.771 51.7371 188.771 50.0958C188.771 48.4545 188.29 48.0596 186.612 48.0596C184.933 48.0596 184.501 48.4545 184.501 50.0958C184.501 51.7371 184.933 52.132 186.612 52.132ZM215.775 54.23H213.454V45.9616H215.923L218.218 49.0592L219.427 50.9597H219.588L219.477 49.1579V45.9616H221.797V54.23H219.329L216.885 51.0461L215.836 49.4171H215.676L215.775 50.9967V54.23ZM248.149 54.3534C245.619 54.3534 244.076 53.4525 244.076 51.3546V51.2805H246.396V51.5397C246.396 52.095 246.594 52.2431 248.149 52.2431C249.555 52.2431 249.703 52.132 249.703 51.7618C249.703 51.4656 249.543 51.3422 248.864 51.2558L246.273 50.9103C244.73 50.7005 243.953 49.8737 243.953 48.5409C243.953 47.2204 244.977 45.8382 247.963 45.8382C250.592 45.8382 251.851 46.9859 251.851 48.837V48.9111H249.531V48.726C249.531 48.1336 249.272 47.9362 247.717 47.9362C246.532 47.9362 246.273 48.0966 246.273 48.4545C246.273 48.7136 246.421 48.837 246.865 48.8988L249.457 49.2813C251.481 49.5775 252.024 50.6141 252.024 51.6754C252.024 53.0946 250.938 54.3534 248.149 54.3534Z" fill="white"/>
</svg>
