<svg width="40" height="40" viewBox="0 0 40 40" fill="none" xmlns="http://www.w3.org/2000/svg">
<path d="M34.8506 0.495972C36.0001 0.495972 37.1025 0.952612 37.9153 1.76544C38.7282 2.57826 39.1848 3.68069 39.1848 4.8302V35.1698C39.1848 36.3193 38.7282 37.4217 37.9153 38.2346C37.1025 39.0474 36.0001 39.504 34.8506 39.504H4.51099C3.36148 39.504 2.25905 39.0474 1.44622 38.2346C0.633398 37.4217 0.176758 36.3193 0.176758 35.1698V4.8302C0.176758 3.68069 0.633398 2.57826 1.44622 1.76544C2.25905 0.952612 3.36148 0.495972 4.51099 0.495972H34.8506ZM33.767 34.0862V22.6005C33.767 20.7268 33.0227 18.9299 31.6978 17.605C30.3729 16.2801 28.5759 15.5357 26.7022 15.5357C24.8602 15.5357 22.7147 16.6626 21.6745 18.353V15.9475H15.6283V34.0862H21.6745V23.4024C21.6745 21.7337 23.0181 20.3684 24.6868 20.3684C25.4915 20.3684 26.2632 20.6881 26.8322 21.257C27.4011 21.826 27.7208 22.5977 27.7208 23.4024V34.0862H33.767ZM8.58516 12.5451C9.55075 12.5451 10.4768 12.1615 11.1596 11.4788C11.8423 10.796 12.2259 9.86996 12.2259 8.90438C12.2259 6.88896 10.6006 5.24195 8.58516 5.24195C7.61383 5.24195 6.68227 5.62781 5.99544 6.31465C5.3086 7.00149 4.92274 7.93304 4.92274 8.90438C4.92274 10.9198 6.56975 12.5451 8.58516 12.5451ZM11.5975 34.0862V15.9475H5.59454V34.0862H11.5975Z" fill="white"/>
</svg>
