<svg width="53" height="65" viewBox="0 0 53 65" fill="none" xmlns="http://www.w3.org/2000/svg">
<path d="M26.1768 58.1144C31.4491 56.4838 35.8517 53.2638 39.3847 48.4546C42.9177 43.6454 44.9832 38.2774 45.5811 32.3507H26.1768V6.66847L6.60938 14.0062V30.8831C6.60938 31.2636 6.66373 31.7528 6.77244 32.3507H26.1768V58.1144ZM26.1768 64.6368C25.7963 64.6368 25.443 64.6097 25.1169 64.5553C24.7907 64.501 24.4646 64.4194 24.1385 64.3107C16.8007 61.8648 10.9577 57.3404 6.60938 50.7375C2.26107 44.1346 0.0869141 37.0273 0.0869141 29.4156V14.0062C0.0869141 12.6474 0.481523 11.4244 1.27074 10.3374C2.05996 9.25028 3.07855 8.46215 4.32651 7.97296L23.8939 0.635193C24.6549 0.363424 25.4158 0.227539 26.1768 0.227539C26.9377 0.227539 27.6987 0.363424 28.4596 0.635193L48.027 7.97296C49.2771 8.46215 50.2968 9.25028 51.086 10.3374C51.8753 11.4244 52.2688 12.6474 52.2666 14.0062V29.4156C52.2666 37.0251 50.0924 44.1324 45.7441 50.7375C41.3958 57.3426 35.5528 61.867 28.215 64.3107C27.8889 64.4194 27.5628 64.501 27.2367 64.5553C26.9105 64.6097 26.5572 64.6368 26.1768 64.6368Z" fill="white"/>
</svg>
