<svg width="62" height="62" viewBox="0 0 62 62" fill="none" xmlns="http://www.w3.org/2000/svg">
<path d="M46.8389 6.73834C44.4652 6.73834 42.1888 7.68128 40.5104 9.35971C38.8319 11.0381 37.889 13.3146 37.889 15.6883C37.889 18.0619 38.8319 20.3384 40.5104 22.0168C42.1888 23.6952 44.4652 24.6382 46.8389 24.6382C49.2126 24.6382 51.489 23.6952 53.1675 22.0168C54.8459 20.3384 55.7888 18.0619 55.7888 15.6883C55.7888 13.3146 54.8459 11.0381 53.1675 9.35971C51.489 7.68128 49.2126 6.73834 46.8389 6.73834ZM31.9224 15.6883C31.9224 11.7322 33.4939 7.93807 36.2913 5.14068C39.0887 2.34329 42.8828 0.771729 46.8389 0.771729C50.795 0.771729 54.5891 2.34329 57.3865 5.14068C60.1839 7.93807 61.7554 11.7322 61.7554 15.6883C61.7554 19.6444 60.1839 23.4385 57.3865 26.2358C54.5891 29.0332 50.795 30.6048 46.8389 30.6048C42.8828 30.6048 39.0887 29.0332 36.2913 26.2358C33.4939 23.4385 31.9224 19.6444 31.9224 15.6883ZM0.597656 2.26338H27.4474V29.1131H0.597656V2.26338ZM6.56427 8.23V23.1465H21.4808V8.23H6.56427ZM0.597656 35.0798H27.4474V61.9295H0.597656V35.0798ZM6.56427 41.0464V55.9629H21.4808V41.0464H6.56427ZM33.414 35.0798H60.2638V61.9295H33.414V35.0798ZM54.2972 41.0464H39.3806V55.9629H54.2972V41.0464Z" fill="white"/>
</svg>
