<svg width="64" height="57" viewBox="0 0 64 57" fill="none" xmlns="http://www.w3.org/2000/svg">
<path d="M32.1768 12.7256V0.225586H0.926758V56.4756H63.4268V12.7256H32.1768ZM13.4268 50.2256H7.17676V43.9756H13.4268V50.2256ZM13.4268 37.7256H7.17676V31.4756H13.4268V37.7256ZM13.4268 25.2256H7.17676V18.9756H13.4268V25.2256ZM13.4268 12.7256H7.17676V6.47559H13.4268V12.7256ZM25.9268 50.2256H19.6768V43.9756H25.9268V50.2256ZM25.9268 37.7256H19.6768V31.4756H25.9268V37.7256ZM25.9268 25.2256H19.6768V18.9756H25.9268V25.2256ZM25.9268 12.7256H19.6768V6.47559H25.9268V12.7256ZM57.1768 50.2256H32.1768V43.9756H38.4268V37.7256H32.1768V31.4756H38.4268V25.2256H32.1768V18.9756H57.1768V50.2256ZM50.9268 25.2256H44.6768V31.4756H50.9268V25.2256ZM50.9268 37.7256H44.6768V43.9756H50.9268V37.7256Z" fill="white"/>
</svg>
