<svg width="69" height="42" viewBox="0 0 69 42" fill="none" xmlns="http://www.w3.org/2000/svg">
<g clip-path="url(#clip0_230_11)">
<path d="M19.4248 15.6412C19.4248 16.4829 19.516 17.1652 19.6751 17.6656C19.8771 18.2286 20.1203 18.7759 20.4028 19.3031C20.5165 19.4851 20.5619 19.667 20.5619 19.8264C20.5619 20.0536 20.4256 20.2812 20.1299 20.5087L18.6971 21.4639C18.4924 21.6005 18.2876 21.6686 18.1054 21.6686C17.8782 21.6686 17.6507 21.5549 17.4231 21.3501C17.1164 21.021 16.8423 20.663 16.6045 20.2812C16.377 19.8948 16.1494 19.4623 15.8994 18.9393C14.1251 21.0316 11.8961 22.0779 9.21238 22.0781C7.30197 22.0781 5.77793 21.532 4.66335 20.4405C3.54903 19.3485 2.98047 17.8929 2.98047 16.0734C2.98047 14.1402 3.6628 12.5708 5.05026 11.3881C6.43745 10.2053 8.27998 9.61398 10.6226 9.61398C11.3959 9.61398 12.192 9.68213 13.0335 9.7959C13.8752 9.90966 14.7394 10.0916 15.6493 10.2963V8.63597C15.6493 6.90721 15.2852 5.70193 14.58 4.9968C13.8524 4.29166 12.624 3.95036 10.8727 3.95036C10.0766 3.95036 9.25799 4.04159 8.41629 4.24632C7.57458 4.45104 6.75594 4.70111 5.95985 5.0196C5.59601 5.17871 5.32314 5.26967 5.16376 5.31529C5.00438 5.3609 4.89088 5.38344 4.79992 5.38344C4.48143 5.38344 4.32232 5.15591 4.32232 4.6783V3.56372C4.32232 3.19988 4.36793 2.92701 4.48143 2.76789C4.5952 2.60851 4.79992 2.4494 5.11841 2.29029C5.91442 1.88066 6.86962 1.53945 7.98403 1.26667C9.09888 0.970981 10.2816 0.834676 11.5325 0.834676C14.2393 0.834676 16.2181 1.44858 17.4918 2.67693C18.7427 3.90502 19.3797 5.77008 19.3797 8.27213V15.6412H19.4248ZM10.1904 19.0984C10.9411 19.0984 11.7144 18.9621 12.5331 18.689C13.352 18.4161 14.0799 17.9157 14.6938 17.2334C15.0579 16.8014 15.3308 16.3238 15.4671 15.7777C15.6037 15.232 15.6946 14.5722 15.6946 13.7989V12.8437C15.0048 12.6759 14.3062 12.5468 13.602 12.4571C12.8929 12.3671 12.1789 12.3215 11.4641 12.3205C9.94005 12.3205 8.82574 12.6162 8.07526 13.2303C7.32478 13.8445 6.96067 14.7088 6.96067 15.8459C6.96067 16.9149 7.23355 17.711 7.80211 18.257C8.34813 18.8255 9.14423 19.0984 10.1904 19.0984ZM28.4544 21.5549C28.045 21.5549 27.7721 21.4867 27.5902 21.3273C27.4082 21.191 27.2489 20.8725 27.1126 20.4405L21.7677 2.85885C21.6309 2.40379 21.5627 2.1081 21.5627 1.94899C21.5627 1.58516 21.7446 1.38016 22.1087 1.38016H24.3376C24.7696 1.38016 25.0656 1.44858 25.2247 1.60769C25.4066 1.74427 25.5432 2.06276 25.6795 2.49475L29.5006 17.5518L33.0488 2.49475C33.1625 2.03995 33.2991 1.74427 33.4808 1.60769C33.663 1.47139 33.9814 1.38043 34.3909 1.38043H36.2103C36.6423 1.38043 36.9383 1.44858 37.1199 1.60769C37.3021 1.74427 37.4612 2.06276 37.5522 2.49475L41.146 17.7338L45.0806 2.49475C45.2169 2.03995 45.3763 1.74427 45.5354 1.60769C45.7173 1.47139 46.013 1.38043 46.4225 1.38043H48.5376C48.9017 1.38043 49.1064 1.56235 49.1064 1.94899C49.1064 2.06276 49.0836 2.17653 49.0608 2.31283C49.038 2.44913 48.9927 2.63132 48.9017 2.88166L43.42 20.4631C43.2837 20.9181 43.1245 21.2138 42.9424 21.3501C42.7605 21.4867 42.4648 21.5777 42.0784 21.5777H40.1224C39.6901 21.5777 39.3945 21.5095 39.2123 21.3501C39.0304 21.191 38.8712 20.8953 38.7803 20.4405L35.2546 5.77008L31.752 20.4175C31.6385 20.8725 31.5019 21.1682 31.32 21.3273C31.1381 21.4867 30.8196 21.5549 30.4104 21.5549H28.4544ZM57.6813 22.169C56.4985 22.169 55.3158 22.0325 54.1787 21.7596C53.0413 21.4867 52.1545 21.1907 51.5631 20.85C51.199 20.645 50.9487 20.4177 50.858 20.213C50.7695 20.0122 50.7231 19.7954 50.7214 19.576V18.4161C50.7214 17.9385 50.9033 17.711 51.2446 17.711C51.3839 17.7115 51.5222 17.7346 51.6541 17.7794C51.7904 17.825 51.9951 17.9157 52.2227 18.0066C53.0259 18.3602 53.8646 18.6271 54.7244 18.8027C55.6154 18.9834 56.5221 19.0748 57.4312 19.0756C58.864 19.0756 59.9786 18.8255 60.7519 18.3251C61.5252 17.8247 61.9346 17.097 61.9346 16.1644C61.9346 15.5277 61.7299 15.0045 61.3204 14.5722C60.911 14.1399 60.1377 13.7536 59.0234 13.3895L55.7252 12.3661C54.0649 11.8429 52.8368 11.0696 52.0861 10.046C51.3356 9.04515 50.949 7.93083 50.949 6.7481C50.949 5.79289 51.1537 4.95127 51.5631 4.22324C51.9723 3.49557 52.5183 2.85885 53.2007 2.35844C53.883 1.83523 54.6563 1.44858 55.5661 1.17571C56.4757 0.902829 57.4309 0.789062 58.4318 0.789062C58.9322 0.789062 59.4554 0.811869 59.9558 0.880022C60.479 0.948174 60.9566 1.03913 61.4342 1.13009C61.889 1.24386 62.3213 1.35762 62.7307 1.4942C63.14 1.6305 63.4584 1.7669 63.6859 1.90338C64.0044 2.08557 64.2317 2.26748 64.3682 2.47221C64.5047 2.65413 64.573 2.90429 64.573 3.22269V4.29166C64.573 4.76926 64.3911 5.0196 64.0498 5.0196C63.8678 5.0196 63.5722 4.92838 63.1858 4.74646C61.8889 4.15509 60.4332 3.8594 58.8187 3.8594C57.5222 3.8594 56.4985 4.06413 55.7934 4.49639C55.0885 4.92838 54.7244 5.58816 54.7244 6.52056C54.7244 7.15755 54.952 7.7033 55.4068 8.13556C55.8616 8.56782 56.7033 8.9998 57.9088 9.38645L61.1385 10.4101C62.7761 10.9333 63.9588 11.661 64.6639 12.5934C65.3691 13.5258 65.7104 14.595 65.7104 15.7777C65.7104 16.7557 65.5054 17.6428 65.1187 18.4161C64.7095 19.1894 64.1635 19.8717 63.4584 20.4177C62.7533 20.9863 61.9118 21.3957 60.9338 21.6914C59.9102 22.0099 58.8412 22.169 57.6813 22.169Z" fill="#252F3E"/>
<path d="M61.9795 33.223C54.4967 38.7501 43.6245 41.6841 34.2766 41.6841C21.1755 41.6841 9.37125 36.8394 0.455372 28.7878C-0.249762 28.151 0.386952 27.2868 1.22839 27.7869C10.8722 33.3824 22.7677 36.7712 35.0727 36.7712C43.3744 36.7712 52.495 35.0427 60.8879 31.4945C62.1388 30.9257 63.2078 32.3134 61.9795 33.223ZM65.0957 29.6748C64.1405 28.4467 58.7725 29.0834 56.3389 29.3791C55.611 29.4704 55.4972 28.8334 56.157 28.3558C60.4329 25.3533 67.4611 26.2178 68.2798 27.2184C69.0987 28.242 68.0523 35.27 64.0492 38.6363C63.4353 39.1595 62.844 38.8866 63.1168 38.2043C64.0264 35.9523 66.0509 30.8804 65.0957 29.6748Z" fill="#FF9900"/>
</g>
<defs>
<clipPath id="clip0_230_11">
<rect width="68.6889" height="41.0524" fill="white" transform="translate(0 0.766113)"/>
</clipPath>
</defs>
</svg>
