<svg width="64" height="46" viewBox="0 0 64 46" fill="none" xmlns="http://www.w3.org/2000/svg">
<g clip-path="url(#clip0_230_20)">
<path d="M61.9276 18.0375C60.5219 17.056 57.3008 16.6879 54.7825 17.1787C54.4899 14.7248 53.1428 12.578 50.8001 10.6763L49.4533 9.69473L48.516 11.1057C47.3449 12.9461 46.7592 15.5226 46.9348 17.9764C46.9933 18.835 47.2861 20.3686 48.1646 21.7182C47.3449 22.209 45.6464 22.8224 43.421 22.8224H1.07843L0.96139 23.3132C0.551277 25.7668 0.551277 33.4347 5.35365 39.3237C8.98469 43.8017 14.3727 46.0714 21.459 46.0714C36.8029 46.0714 48.1646 38.6486 53.4942 25.2147C55.6025 25.276 60.1121 25.2147 62.3962 20.6138C62.4547 20.4911 62.5718 20.2457 62.9816 19.3257L63.2159 18.835L61.9276 18.0375ZM34.9289 0.73877H28.487V6.87308H34.9289V0.73877ZM34.9289 8.09999H28.487V14.2343H34.9289V8.09999ZM27.3154 8.09999H20.8736V14.2343H27.3154V8.09999ZM19.702 8.09999H13.2599V14.2343H19.702V8.09999ZM12.0886 15.4612H5.64648V21.5955H12.0883L12.0886 15.4612ZM19.702 15.4612H13.2599V21.5955H19.702V15.4612ZM27.3154 15.4612H20.8736V21.5955H27.3154V15.4612ZM34.9291 15.4612H28.4868V21.5955H34.9291V15.4612ZM42.5425 15.4612H36.1002V21.5955H42.5425V15.4612Z" fill="#2396ED"/>
</g>
<defs>
<clipPath id="clip0_230_20">
<rect width="62.4191" height="45.1076" fill="white" transform="translate(0.796875 0.73877)"/>
</clipPath>
</defs>
</svg>
