<svg width="56" height="56" viewBox="0 0 56 56" fill="none" xmlns="http://www.w3.org/2000/svg">
<g clip-path="url(#clip0_230_26)">
<path d="M21.2868 42.9337C21.2868 42.9337 19.2413 44.124 22.7445 44.5257C26.9893 45.0106 29.1585 44.9411 33.835 44.0571C33.835 44.0571 35.067 44.8273 36.7843 45.495C26.2972 49.9879 13.0509 45.2346 21.2868 42.9337ZM20.0046 37.0698C20.0046 37.0698 17.7097 38.7687 21.216 39.1317C25.7505 39.5999 29.3306 39.6381 35.5287 38.4451C35.5287 38.4451 36.3839 39.3141 37.7309 39.7887C25.054 43.4962 10.9345 40.0805 20.0046 37.0698Z" fill="#0074BD"/>
<path d="M30.8068 27.1213C33.3922 30.0972 30.1288 32.7727 30.1288 32.7727C30.1288 32.7727 36.6895 29.3866 33.6771 25.1444C30.8625 21.1901 28.705 19.226 40.3863 12.4512C40.3863 12.4516 22.0498 17.0298 30.8068 27.1213Z" fill="#EA2D2E"/>
<path d="M44.6759 47.2718C44.6759 47.2718 46.1903 48.5206 43.0076 49.4856C36.9562 51.3188 17.816 51.8715 12.5001 49.559C10.5902 48.7274 14.1733 47.5744 15.3005 47.3311C16.4759 47.0766 17.147 47.1229 17.147 47.1229C15.0216 45.6266 3.4098 50.0624 11.2497 51.3347C32.6286 54.8002 50.2205 49.774 44.6759 47.2718ZM22.2715 30.9934C22.2715 30.9934 12.5366 33.3059 18.8244 34.1465C21.4798 34.5018 26.7708 34.4203 31.7026 34.0067C35.7319 33.6681 39.7755 32.945 39.7755 32.945C39.7755 32.945 38.356 33.5539 37.3278 34.2551C27.4402 36.856 8.34375 35.6446 13.842 32.9858C18.4901 30.7377 22.2715 30.9934 22.2715 30.9934ZM39.7351 40.7545C49.7854 35.5334 45.1381 30.5158 41.8944 31.1917C41.1014 31.3569 40.7457 31.5006 40.7457 31.5006C40.7457 31.5006 41.0409 31.0376 41.6039 30.8385C48.0205 28.5835 52.9544 37.4911 39.5343 41.0192C39.5343 41.0184 39.6884 40.8789 39.7351 40.7545Z" fill="#0074BD"/>
<path d="M33.6752 1.51074C33.6752 1.51074 39.24 7.07892 28.3958 15.6384C19.6994 22.5068 26.4129 26.4221 28.3928 30.8973C23.316 26.3174 19.5921 22.285 22.09 18.5324C25.7581 13.0251 35.9199 10.3539 33.6752 1.51074Z" fill="#EA2D2E"/>
<path d="M23.2601 54.9073C32.9048 55.524 47.7195 54.5641 48.0701 50C48.0701 50 47.396 51.7302 40.0985 53.1029C31.8655 54.6529 21.7093 54.4722 15.6875 53.478C15.6875 53.4784 16.9212 54.4997 23.2601 54.9073Z" fill="#0074BD"/>
</g>
<defs>
<clipPath id="clip0_230_26">
<rect width="54.9265" height="54.9265" fill="white" transform="translate(0.854492 0.829102)"/>
</clipPath>
</defs>
</svg>
