<svg width="66" height="66" viewBox="0 0 66 66" fill="none" xmlns="http://www.w3.org/2000/svg">
<g clip-path="url(#clip0_230_38)">
<path d="M8.91041 21.333V44.9381H11.6721V27.866C11.6928 26.7859 11.6468 25.7054 11.5346 24.6309H11.6398C11.8421 25.1488 12.0916 25.6405 12.3884 26.1058L24.5278 44.926H27.9106V21.333H25.161V37.9296C25.1287 39.0889 25.1934 40.2482 25.329 41.3974H25.2663C24.9639 40.8604 24.644 40.3334 24.3072 39.8173L12.4936 21.335L8.91041 21.333ZM34.0329 21.333V44.9381H46.5831L46.5932 42.3463H36.8554V34.1583H45.3813V31.6717H36.8554V23.8317H46.0024V21.335L34.0329 21.333ZM48.7014 21.333V23.8297H55.4873V44.9361H58.2491V23.8297H65.1098V21.333H48.7014ZM2.12448 41.5654C1.89222 41.5715 1.66353 41.624 1.45191 41.7199C1.24029 41.8158 1.05002 41.9532 0.892328 42.1238C0.723443 42.2946 0.590018 42.4971 0.499736 42.7197C0.409454 42.9423 0.3641 43.1805 0.366286 43.4207C0.363124 43.7835 0.468319 44.1391 0.668403 44.4418C0.868488 44.7445 1.15436 44.9806 1.48942 45.1199C1.82448 45.2591 2.19348 45.2953 2.54919 45.2236C2.9049 45.1519 3.23113 44.9757 3.48612 44.7176C3.83411 44.3797 4.03441 43.9063 4.03441 43.4207C4.03441 42.9351 3.83411 42.4617 3.48612 42.1238C3.31945 41.9472 3.11842 41.8065 2.89539 41.7105C2.67236 41.6145 2.43205 41.5651 2.18922 41.5654H2.12448Z" fill="#430FFF"/>
<path d="M27.3738 56.2098C26.516 56.2098 25.8659 55.9751 25.4234 55.5057C24.9864 55.0364 24.7679 54.4024 24.7679 53.6039C24.7679 53.032 24.8596 52.541 25.0431 52.131C25.2319 51.7156 25.5179 51.3972 25.9009 51.176C26.284 50.9494 26.7723 50.8361 27.3658 50.8361C27.6679 50.8361 27.9431 50.8604 28.1912 50.909C28.4448 50.9521 28.6795 51.0115 28.8953 51.087V51.8558C28.6795 51.7695 28.4475 51.7048 28.1993 51.6616C27.9565 51.613 27.7003 51.5888 27.4305 51.5888C26.7831 51.5888 26.3245 51.7614 26.0547 52.1067C25.7903 52.452 25.6581 52.9511 25.6581 53.6039C25.6581 54.2136 25.8038 54.6776 26.0952 54.9959C26.3865 55.3088 26.837 55.4653 27.4467 55.4653C27.6949 55.4653 27.9431 55.4464 28.1912 55.4086C28.4448 55.3655 28.6822 55.3007 28.9034 55.2144V55.9913C28.6876 56.0615 28.4529 56.1154 28.1993 56.1532C27.9511 56.191 27.676 56.2098 27.3738 56.2098ZM31.5721 56.2098C30.8815 56.2098 30.3743 56.0372 30.0506 55.6919C29.7323 55.3466 29.5731 54.8529 29.5731 54.2109C29.5731 53.5688 29.735 53.0752 30.0587 52.7299C30.3824 52.3846 30.8869 52.2119 31.5721 52.2119C32.2627 52.2119 32.7698 52.3846 33.0935 52.7299C33.4173 53.0752 33.5791 53.5688 33.5791 54.2109C33.5791 54.8529 33.4173 55.3466 33.0935 55.6919C32.7752 56.0372 32.2681 56.2098 31.5721 56.2098ZM31.5721 55.4653C31.9767 55.4653 32.2627 55.3682 32.4299 55.1739C32.6026 54.9743 32.6889 54.6533 32.6889 54.2109C32.6889 53.7685 32.6026 53.4501 32.4299 53.2559C32.2627 53.0617 31.9767 52.9646 31.5721 52.9646C31.1728 52.9646 30.8869 53.0617 30.7142 53.2559C30.547 53.4501 30.4633 53.7685 30.4633 54.2109C30.4633 54.6533 30.547 54.9743 30.7142 55.1739C30.8869 55.3682 31.1728 55.4653 31.5721 55.4653ZM34.4374 56.1289V52.2928H35.2467L35.2953 52.738C35.4787 52.6193 35.6972 52.5114 35.9508 52.4142C36.2044 52.3171 36.4552 52.2497 36.7034 52.2119V52.8836C36.5524 52.9106 36.3878 52.9511 36.2098 53.005C36.0371 53.0536 35.8726 53.1102 35.7161 53.175C35.5596 53.2343 35.4274 53.2964 35.3195 53.3611V56.1289H34.4374ZM39.1301 56.2098C38.461 56.2098 37.9431 56.0453 37.5762 55.7162C37.2093 55.3871 37.0259 54.8826 37.0259 54.2028C37.0259 53.5877 37.1823 53.1021 37.4953 52.7461C37.8082 52.39 38.283 52.2119 38.9196 52.2119C39.5023 52.2119 39.9393 52.3657 40.2307 52.6732C40.5274 52.9754 40.6758 53.3665 40.6758 53.8467V54.5589H37.8676C37.9107 54.9312 38.0456 55.1874 38.2722 55.3277C38.4988 55.468 38.8441 55.5381 39.3081 55.5381C39.5023 55.5381 39.702 55.5192 39.907 55.4815C40.112 55.4437 40.29 55.3951 40.4411 55.3358V55.9832C40.2685 56.0588 40.0688 56.1154 39.8422 56.1532C39.621 56.191 39.3836 56.2098 39.1301 56.2098ZM37.8676 53.9843H39.8989V53.7172C39.8989 53.4528 39.826 53.2478 39.6804 53.1021C39.5347 52.9511 39.2892 52.8755 38.9439 52.8755C38.5339 52.8755 38.2506 52.9646 38.0942 53.1426C37.9431 53.3207 37.8676 53.6012 37.8676 53.9843Z" fill="#430FFF"/>
</g>
<defs>
<clipPath id="clip0_230_38">
<rect width="64.7436" height="64.7436" fill="white" transform="translate(0.366211 0.920898)"/>
</clipPath>
</defs>
</svg>
