<svg width="90" height="13" viewBox="0 0 90 13" fill="none" xmlns="http://www.w3.org/2000/svg">
<g clip-path="url(#clip0_230_62)">
<path d="M38.5614 8.49243H44.4347L41.3291 3.16475L35.6292 12.7974H33.0353L39.9681 1.22645C40.2694 0.759042 40.7719 0.476562 41.3291 0.476562C41.868 0.476562 42.3704 0.749231 42.6627 1.20701L49.623 12.7974H47.029L45.8051 10.6449H39.8587L38.5614 8.49243ZM65.5074 10.6447V0.593368H63.3061V11.6286C63.3061 11.9305 63.4156 12.2228 63.6257 12.4468C63.8357 12.6708 64.1189 12.7974 64.4295 12.7974H74.468L75.7651 10.6449L65.5074 10.6447ZM29.0891 8.84284C31.2267 8.84284 32.9622 7.0021 32.9622 4.72301C32.9622 2.44374 31.2267 0.593183 29.0891 0.593183H19.4589V12.7976H21.6595V2.74602H28.9431C29.9662 2.74602 30.7882 3.63252 30.7882 4.72338C30.7882 5.81406 29.9662 6.70037 28.9431 6.70037L22.7374 6.69074L29.3084 12.7976H32.5055L28.0845 8.84322L29.0891 8.84284ZM5.91311 12.7974C2.75355 12.7976 0.189453 10.0703 0.189453 6.70037C0.189453 3.33024 2.75355 0.593553 5.91311 0.593553H12.5655C15.7258 0.593553 18.288 3.33024 18.288 6.70037C18.288 10.0703 15.7258 12.7974 12.5654 12.7974H5.91311ZM12.4176 10.6449C14.4646 10.6449 16.1225 8.8819 16.1225 6.70018C16.1225 4.51846 14.4644 2.74602 12.4175 2.74602H6.06015C4.0139 2.74602 2.35514 4.51865 2.35514 6.70037C2.35514 8.88209 4.0139 10.6447 6.05998 10.6447L12.4176 10.6449ZM54.2175 12.7974C51.0572 12.7974 48.4904 10.0703 48.4904 6.70037C48.4904 3.33024 51.0572 0.593553 54.2175 0.593553H62.1188L60.8307 2.74602H54.3637C52.3176 2.74602 50.6552 4.51865 50.6552 6.70037C50.6552 8.88209 52.3176 10.6449 54.3637 10.6449H62.3013L61.0041 12.7974H54.2175ZM81.1362 10.6449C79.4464 10.6449 78.0122 9.43724 77.5739 7.77161H86.9821L88.2791 5.61913H77.5739C78.0122 3.96332 79.4464 2.74602 81.1362 2.74602H87.5942L88.9 0.593183H80.9899C77.8294 0.593183 75.2627 3.33005 75.2627 6.7C75.2627 10.0699 77.8294 12.7972 80.9899 12.7972H87.7767L89.0736 10.6449H81.1362Z" fill="#EA1B22"/>
</g>
<defs>
<clipPath id="clip0_230_62">
<rect width="88.8842" height="11.6313" fill="white" transform="translate(0.189453 0.476562)"/>
</clipPath>
</defs>
</svg>
