<svg width="58" height="57" viewBox="0 0 58 57" fill="none" xmlns="http://www.w3.org/2000/svg">
<path d="M38.6735 33.6146C38.9521 31.2953 38.8688 30.955 40.5962 31.3306L41.0347 31.3694C42.3632 31.4297 44.1011 31.1556 45.1215 30.6813C47.3191 29.6618 48.622 27.9587 46.4552 28.4061C41.5121 29.4256 41.1722 27.7524 41.1722 27.7524C46.3922 20.0078 48.5744 10.1769 46.6911 7.77035C41.5544 1.20648 32.6624 4.31034 32.5134 4.391L32.4658 4.40026C31.4891 4.19707 30.3964 4.0763 29.1684 4.05646C26.9316 4.01988 25.2342 4.64312 23.9467 5.61942C23.9467 5.61942 8.084 -0.915809 8.82184 13.8379C8.97875 16.9766 13.3207 37.5872 18.4993 31.3619C20.3919 29.0857 22.2211 27.1609 22.2211 27.1609C23.1295 27.7643 24.2169 28.072 25.3576 27.9614L25.4457 27.8864C25.4184 28.169 25.4303 28.4453 25.4814 28.7724C24.1472 30.2635 24.5395 30.5253 21.872 31.074C19.1736 31.6303 20.7591 32.6202 21.7936 32.879C23.0489 33.1932 25.9513 33.638 27.9131 30.8916L27.8351 31.2049C28.3588 31.6237 28.3231 34.2141 28.3971 36.0648C28.4711 37.9156 28.5954 39.6425 28.9727 40.6616C29.35 41.6797 29.7952 44.3027 33.3006 43.5517C36.2299 42.9231 38.4695 42.0196 38.6735 33.6146Z" fill="black"/>
<path d="M32.1593 45.3801C30.6087 45.3801 29.5994 44.7806 28.9858 44.2015C28.0602 43.3283 27.693 42.203 27.474 41.5309L27.3792 41.2501C26.9376 40.0578 26.7881 38.3415 26.6996 36.1315C26.6865 35.786 26.6755 35.4404 26.6665 35.0948C26.659 34.8299 26.6498 34.4976 26.6365 34.1489C26.0778 34.4151 25.4849 34.6026 24.8748 34.7061C23.7817 34.893 22.6066 34.8321 21.3813 34.5258C20.5169 34.3098 19.6187 33.862 19.1069 33.17C17.6149 34.4769 16.1917 34.2992 15.4164 34.041C14.0487 33.5848 12.8247 32.3035 11.6739 30.1226C10.8545 28.5697 10.0616 26.5457 9.3171 24.1079C8.02126 19.862 7.19791 15.39 7.12474 13.9222C6.89466 9.32638 8.13145 6.04004 10.8007 4.15489C15.0122 1.18016 21.3923 2.92912 23.7182 3.72338C25.2807 2.78146 27.1192 2.32262 29.1969 2.35612C30.3129 2.37419 31.3752 2.47248 32.3621 2.64791C33.3913 2.32439 35.4249 1.85982 37.7526 1.88847C42.0413 1.9396 45.5952 3.61098 48.0295 6.7219C49.7666 8.94159 48.9079 13.6022 48.2411 16.1834C47.3036 19.8131 45.6599 23.6746 43.6412 27.0359C44.1896 27.0398 44.9834 26.9737 46.1126 26.741C48.3402 26.2808 48.9912 27.4753 49.168 28.01C49.8763 30.1552 46.7976 31.7759 45.8371 32.2215C44.6065 32.7932 42.6006 33.1409 40.9574 33.0655L40.8856 33.0607L40.4541 33.0228L40.4113 33.3825L40.3703 33.7346C40.2601 37.9942 39.6514 40.6917 38.3992 42.4746C37.0871 44.343 35.2627 44.867 33.6562 45.2113C33.1647 45.3208 32.6629 45.3774 32.1593 45.3801ZM28.8968 29.8766C29.8977 30.6775 29.9855 32.1845 30.0635 35.0009C30.0732 35.3522 30.0824 35.685 30.0948 35.9958C30.1327 36.9363 30.2213 39.1393 30.5659 40.0702C30.6149 40.2015 30.6585 40.3355 30.7043 40.4766C31.0887 41.6543 31.2817 42.2445 32.9439 41.8883C34.3398 41.5895 35.0569 41.3211 35.6184 40.5215C36.4347 39.3588 36.8914 37.0214 36.9751 33.572L38.6729 33.6134L36.9866 33.4111L37.0359 32.9902C37.1977 31.6026 37.3141 30.5995 38.2419 29.9366C38.9859 29.4046 39.8344 29.4561 40.51 29.5778C39.7678 29.0176 39.5624 28.3591 39.5077 28.0893L39.3663 27.392L39.7638 26.8014C42.0558 23.4005 43.9463 19.2207 44.9503 15.3336C45.9817 11.3394 45.667 9.21795 45.3527 8.81686C41.1893 3.49638 33.9682 5.69271 33.2145 5.94263L33.0867 6.01139L32.4476 6.13083L32.1201 6.06296C31.2178 5.87563 30.2155 5.77205 29.1405 5.75442C27.4519 5.72621 26.09 6.1251 24.9731 6.9727L24.1982 7.56024L23.2986 7.18955C21.3778 6.40411 15.7342 4.82485 12.7564 6.93391C11.1035 8.10458 10.3507 10.3988 10.5182 13.7525C10.5733 14.8597 11.3261 19.051 12.5664 23.1166C14.2814 28.7346 15.84 30.6003 16.4906 30.8176C16.6038 30.856 16.8987 30.6268 17.1918 30.2751C19.0986 27.9818 20.9119 26.0702 20.9881 25.9895L21.9715 24.955L23.1602 25.7449C23.6393 26.0636 24.1678 26.2438 24.7108 26.2778L27.5463 23.8597L27.1355 28.0514C27.1262 28.1457 27.1218 28.2735 27.1588 28.5116L27.2822 29.3063L26.7476 29.9048L26.6859 29.974L28.2436 30.6933L28.8968 29.8766Z" fill="black"/>
<path d="M46.457 28.4063C41.5134 29.4258 41.1736 27.7522 41.1736 27.7522C46.3931 20.0075 48.5749 10.1763 46.6919 7.77012C41.5548 1.20625 32.6628 4.31056 32.5143 4.39122L32.4662 4.39959C31.4895 4.19728 30.3968 4.07651 29.1684 4.05668C26.9316 4.02009 25.2346 4.64289 23.9471 5.61919C23.9471 5.61919 8.084 -0.915595 8.82184 13.8381C8.97875 16.9768 13.3207 37.5874 18.4993 31.3621C20.3919 29.086 22.2207 27.1611 22.2207 27.1611C23.1291 27.7645 24.2164 28.0722 25.3567 27.9616L25.4453 27.8866C25.418 28.1692 25.4303 28.4455 25.4806 28.7726C24.1468 30.2637 24.5382 30.5255 21.8716 31.0743C19.1728 31.6305 20.7582 32.6205 21.7936 32.8792C23.0484 33.1935 25.9513 33.6382 27.9127 30.8918L27.8342 31.2052C28.357 31.6239 28.7241 33.9287 28.6624 36.0179C28.6007 38.1071 28.5597 39.5414 28.9719 40.6618C29.384 41.7822 29.7943 44.3029 33.3002 43.5519C36.2295 42.9238 37.7475 41.2969 37.9591 38.5836C38.1089 36.6543 38.4479 36.9395 38.4695 35.2144L38.7419 34.3976C39.0552 31.7821 38.7917 30.9385 40.5966 31.3312L41.0352 31.3696C42.3636 31.4304 44.102 31.1558 45.1224 30.6815C47.32 29.6616 48.6234 27.9589 46.457 28.4063Z" fill="#336791"/>
<path d="M32.3345 44.3339C29.4118 44.3344 28.4862 42.0199 28.1071 41.0736C27.5531 39.6869 27.4332 34.3043 27.5566 29.89C27.5648 29.7427 27.6302 29.6043 27.7389 29.5044C27.8475 29.4045 27.9909 29.3509 28.1384 29.355C28.286 29.3592 28.4261 29.4207 28.529 29.5265C28.6319 29.6324 28.6894 29.7742 28.6894 29.9218C28.547 35.0131 28.7493 39.6265 29.1592 40.6526C29.7997 42.2535 30.7707 43.6538 33.5171 43.0658C36.1242 42.5065 37.1005 41.5179 37.5351 38.9976C37.8692 37.0631 38.5286 31.5601 38.6097 30.4741C38.6208 30.3243 38.6911 30.185 38.8049 30.087C38.9187 29.989 39.0668 29.9401 39.2166 29.9513C39.3664 29.9625 39.5056 30.0327 39.6037 30.1465C39.7017 30.2603 39.7505 30.4084 39.7394 30.5582C39.6547 31.6884 38.998 37.1812 38.6511 39.1902C38.1376 42.1676 36.8105 43.5181 33.7542 44.1735C33.2879 44.2764 32.812 44.3302 32.3345 44.3339ZM16.4886 33.0305C16.2331 33.0306 15.9794 32.9887 15.7375 32.9066C13.8391 32.2733 12.0311 29.1817 10.3632 23.7171C9.09384 19.5572 8.28944 15.2156 8.21892 13.8048C8.00956 9.6219 9.08723 6.66216 11.4211 5.00841C16.0385 1.73661 23.8066 4.85238 24.1349 4.98637C24.2727 5.04404 24.3822 5.15382 24.4394 5.2918C24.4967 5.42977 24.4971 5.58478 24.4406 5.72307C24.3841 5.86135 24.2753 5.97172 24.1378 6.03013C24.0003 6.08855 23.8453 6.09028 23.7065 6.03495V6.03539C23.6316 6.00454 16.1827 3.02056 12.0739 5.93446C10.0781 7.34976 9.16172 9.97848 9.34992 13.7488C9.40943 14.9371 10.1609 19.175 11.4466 23.387C12.9355 28.2649 14.6303 31.3437 16.0958 31.8321C16.3255 31.9092 17.0254 32.1424 18.0268 30.9391C19.9098 28.6735 21.6398 26.8655 21.657 26.8474C21.7623 26.7454 21.9031 26.6881 22.0498 26.6877C22.1965 26.6873 22.3376 26.7437 22.4435 26.8452C22.5494 26.9467 22.6119 27.0852 22.6178 27.2318C22.6236 27.3784 22.5725 27.5215 22.475 27.6311C22.4578 27.6488 20.7543 29.4299 18.8978 31.6632C18.0184 32.7202 17.1753 33.0305 16.4886 33.0305ZM41.1361 28.2574C41.0333 28.2576 40.9323 28.2297 40.8441 28.1768C40.7559 28.1239 40.6838 28.0479 40.6356 27.9571C40.5873 27.8663 40.5647 27.764 40.5702 27.6613C40.5757 27.5586 40.609 27.4593 40.6667 27.3742C45.9431 19.5444 47.7952 10.0843 46.2089 8.05762C44.2122 5.50648 41.3927 4.1736 37.8291 4.09735C35.1902 4.04005 33.0926 4.71398 32.7501 4.83167L32.6642 4.86649C32.3195 4.97491 32.0551 4.78583 31.9554 4.565C31.8987 4.43848 31.8901 4.29558 31.9314 4.16318C31.9726 4.03079 32.0608 3.91803 32.1794 3.84611L32.3319 3.78353L32.3244 3.78573L32.3323 3.78308C32.9146 3.5702 35.0439 2.93109 37.6819 2.9615C41.6254 3.00293 44.8826 4.52401 47.1015 7.35901C48.1514 8.7007 48.1536 11.7918 47.1081 15.8393C46.0423 19.9658 44.0368 24.4012 41.6064 28.0075C41.5547 28.0847 41.4847 28.1479 41.4026 28.1915C41.3206 28.2351 41.229 28.2577 41.1361 28.2574ZM41.4054 31.8819C40.5045 31.8819 39.697 31.7554 39.2135 31.4653C38.7163 31.1678 38.6216 30.7628 38.6092 30.5481C38.4735 28.1662 39.7878 27.7515 40.4582 27.5624C40.3648 27.4213 40.2317 27.2551 40.0946 27.0837C39.7037 26.5953 39.1686 25.9262 38.756 24.9257C38.6917 24.7697 38.4889 24.406 38.2544 23.9856C36.9837 21.7072 34.34 16.9659 36.0383 14.5378C36.8246 13.4142 38.3893 12.9722 40.6954 13.219C40.017 11.1522 36.7862 4.68665 29.1213 4.56104C26.8157 4.52225 24.9248 5.23144 23.5042 6.66569C20.3232 9.87843 20.4387 15.6912 20.44 15.749C20.442 15.8233 20.4292 15.8973 20.4026 15.9668C20.3759 16.0362 20.3358 16.0997 20.2846 16.1536C20.2334 16.2076 20.1721 16.2509 20.1042 16.2812C20.0362 16.3114 19.963 16.328 19.8886 16.3299C19.8143 16.3318 19.7403 16.3191 19.6708 16.2925C19.6014 16.2658 19.5379 16.2257 19.484 16.1745C19.43 16.1233 19.3867 16.062 19.3564 15.994C19.3262 15.9261 19.3096 15.8529 19.3077 15.7785C19.3006 15.5207 19.1816 9.42091 22.6994 5.86834C24.3456 4.20578 26.5124 3.38507 29.1398 3.42783C34.0447 3.50849 37.201 6.00146 38.9856 8.07922C40.9303 10.343 41.8841 12.8404 41.9626 13.6734C42.0212 14.2931 41.5765 14.4174 41.4865 14.4355L41.2825 14.4403C39.0191 14.078 37.5673 14.3293 36.9669 15.1874C35.6751 17.0334 38.176 21.5182 39.2439 23.4337C39.5168 23.9221 39.7133 24.2751 39.8033 24.4933C40.1541 25.344 40.6116 25.9157 40.9792 26.3749C41.3023 26.7791 41.5826 27.1291 41.6831 27.5408C41.7294 27.6223 42.3897 28.5982 46.3059 27.7898C47.2875 27.5875 47.8759 27.7607 48.0557 28.3046C48.4096 29.3752 46.424 30.6235 45.3247 31.1343C44.3383 31.5923 42.7661 31.8819 41.4054 31.8819ZM39.7389 30.4547C39.8628 30.5803 40.4842 30.7963 41.7717 30.7412C42.9159 30.6918 44.1232 30.4428 44.8478 30.1069C45.7743 29.6767 46.3923 29.1958 46.7127 28.8675L46.5346 28.9001C44.0306 29.4171 42.2596 29.3483 41.271 28.6951C41.2046 28.6512 41.1406 28.6036 41.0793 28.5528C40.9722 28.5951 40.873 28.6228 40.8025 28.6427C40.2414 28.8 39.6613 28.9627 39.7389 30.4547ZM23.5642 33.6189C22.9422 33.6189 22.2877 33.5347 21.6191 33.3668C20.9266 33.1936 19.7586 32.6722 19.7767 31.8157C19.7965 30.8544 21.1942 30.5662 21.7209 30.4577C23.6215 30.0664 23.7453 29.9094 24.3395 29.1553C24.5127 28.9353 24.7282 28.6616 25.0218 28.3333C25.4581 27.8453 25.935 27.5976 26.4393 27.5976C26.7901 27.5976 27.0784 27.7171 27.2683 27.7955C27.8748 28.0468 28.3808 28.6541 28.5889 29.3814C28.7766 30.0373 28.6872 30.6684 28.3368 31.1586C27.1872 32.7687 25.537 33.6189 23.5642 33.6189ZM21.0002 31.8647C21.1712 31.9965 21.5133 32.1728 21.8937 32.2684C22.4728 32.413 23.0344 32.4866 23.5642 32.4866C25.1782 32.4866 26.4736 31.818 27.4151 30.5005C27.6113 30.2255 27.5526 29.8768 27.5002 29.693C27.39 29.3087 27.1167 28.9591 26.8351 28.8419C26.6821 28.7784 26.5556 28.7299 26.4393 28.7299C26.3767 28.7299 26.1867 28.7299 25.8663 29.0883C25.5956 29.3907 25.4013 29.6375 25.2289 29.8557C24.4893 30.7949 24.1504 31.1136 21.9492 31.5672C21.4123 31.6782 21.1369 31.7902 21.0002 31.8647ZM25.3559 29.2518C25.2207 29.2516 25.09 29.2031 24.9874 29.115C24.8848 29.0269 24.8171 28.905 24.7965 28.7714C24.782 28.6773 24.7726 28.5826 24.7683 28.4875C23.3253 28.4602 21.9333 27.8414 20.8768 26.7386C19.5409 25.3444 18.9326 23.413 19.2085 21.4397C19.5082 19.2967 19.3963 17.4049 19.3359 16.3885C19.3209 16.1795 19.3116 15.97 19.3081 15.7604C19.309 15.5815 19.3125 15.1059 20.9015 14.3006C21.4666 14.0141 22.5998 13.5143 23.8374 13.386C25.8888 13.1745 27.2406 14.0877 27.6452 15.9583C28.7374 21.0095 27.7316 23.2437 26.9973 24.875C26.8602 25.1783 26.7311 25.4656 26.6279 25.7433L26.5367 25.9888C26.1488 27.029 25.8134 27.9278 25.9165 28.5995C25.9392 28.748 25.902 28.8994 25.8132 29.0205C25.7244 29.1417 25.5911 29.2226 25.4427 29.2456L25.3559 29.2518ZM20.4444 15.9169L20.4669 16.3215C20.5295 17.3772 20.6459 19.3421 20.3303 21.597C20.1028 23.2244 20.6 24.8133 21.6944 25.9553C22.5592 26.858 23.6982 27.3561 24.8684 27.3561H24.8926C25.024 26.8038 25.2413 26.2211 25.4753 25.593L25.5661 25.3493C25.6829 25.0355 25.8196 24.7318 25.9641 24.4105C26.6711 22.8396 27.5509 20.8843 26.5376 16.1977C26.3366 15.2699 25.85 14.7326 25.05 14.5554C23.4068 14.1922 20.9584 15.4281 20.4444 15.9169ZM23.863 15.6767C23.8348 15.8768 24.2302 16.4114 24.745 16.4829C25.2593 16.5547 25.6997 16.1368 25.7274 15.9367C25.7552 15.7366 25.3603 15.5158 24.845 15.444C24.3306 15.3721 23.8903 15.4761 23.863 15.6767ZM24.8635 16.6803L24.719 16.6702C24.3994 16.6257 24.0763 16.4242 23.8555 16.1311C23.7779 16.0284 23.651 15.8283 23.6761 15.6502C23.7123 15.3889 24.0305 15.2328 24.5281 15.2328C24.6401 15.2328 24.7547 15.2409 24.8719 15.2571C25.1434 15.295 25.396 15.3734 25.5824 15.4775C25.9055 15.6582 25.9293 15.8592 25.9148 15.9636C25.8746 16.2514 25.4154 16.6803 24.8635 16.6803ZM24.0508 15.7102C24.0671 15.8336 24.3725 16.2413 24.771 16.2964L24.8631 16.303C25.2307 16.303 25.5057 16.0134 25.5379 15.9187C25.504 15.8543 25.2677 15.6934 24.819 15.6317C24.7225 15.6182 24.6251 15.6112 24.5277 15.6106C24.2403 15.6101 24.0865 15.6749 24.0508 15.7102ZM39.5309 15.2681C39.5586 15.4686 39.1642 16.0033 38.6489 16.0747C38.1341 16.1461 37.6938 15.7287 37.6656 15.5282C37.6382 15.328 38.0332 15.1072 38.548 15.0358C39.0628 14.9635 39.5027 15.0684 39.5309 15.2681ZM38.5303 16.177C38.0345 16.177 37.6074 15.7913 37.5721 15.5414C37.5316 15.2412 38.0257 15.0129 38.5352 14.9424C38.6477 14.9265 38.7578 14.9186 38.8653 14.9186C39.3048 14.9186 39.5957 15.0477 39.6248 15.2553C39.6437 15.3902 39.5406 15.5978 39.3625 15.7847C39.2453 15.9081 38.9984 16.1219 38.6626 16.1681L38.5303 16.177ZM38.8649 15.1072C38.7661 15.1072 38.6648 15.1144 38.5607 15.1288C38.0486 15.1998 37.744 15.4056 37.7586 15.5158C37.7757 15.6366 38.1024 15.9883 38.5299 15.9883L38.6352 15.9808C38.9147 15.9416 39.1245 15.7596 39.2245 15.6542C39.3815 15.4889 39.444 15.3338 39.4365 15.2804C39.4273 15.2112 39.2386 15.1072 38.8649 15.1072ZM40.2727 26.7668C40.1701 26.7667 40.0694 26.7388 39.9815 26.686C39.8935 26.6332 39.8216 26.5575 39.7733 26.467C39.725 26.3765 39.7022 26.2746 39.7073 26.1721C39.7124 26.0696 39.7453 25.9705 39.8024 25.8853C41.0083 24.0838 40.7875 22.2463 40.5742 20.47C40.4829 19.7128 40.389 18.9304 40.4137 18.1789C40.4384 17.4063 40.5363 16.7689 40.6315 16.1518C40.7439 15.4215 40.8501 14.7308 40.806 13.9119C40.8028 13.7647 40.8569 13.622 40.957 13.5141C41.0571 13.4061 41.1953 13.3413 41.3423 13.3334C41.4893 13.3255 41.6336 13.3751 41.7447 13.4717C41.8558 13.5683 41.9249 13.7044 41.9375 13.851C41.9877 14.7872 41.8674 15.5683 41.751 16.3242C41.6611 16.9073 41.5681 17.5103 41.5456 18.2151C41.524 18.8802 41.6091 19.5867 41.699 20.3343C41.9264 22.2238 42.1834 24.3655 40.7439 26.5151C40.6345 26.6782 40.4552 26.7668 40.2727 26.7668Z" fill="white"/>
<path d="M2.02148 45.5637C2.65427 45.4606 3.2946 45.4108 3.93573 45.4148C4.92084 45.4148 5.64325 45.644 6.10165 46.0565C6.52566 46.4232 6.77778 46.9848 6.77778 47.6728C6.77778 48.3719 6.57106 48.9219 6.18143 49.323C5.65427 49.8846 4.79478 50.1711 3.82069 50.1711C3.52273 50.1711 3.24769 50.1596 3.01894 50.1023V53.1969H2.02148V45.5637ZM3.01894 49.2882C3.23667 49.3455 3.51171 49.3684 3.84405 49.3684C5.0469 49.3684 5.78077 48.784 5.78077 47.7182C5.78077 46.6983 5.0588 46.2055 3.95865 46.2055C3.52317 46.2055 3.19083 46.2399 3.01894 46.2857V49.2882ZM12.8171 50.3769C12.8171 52.4282 11.3957 53.3225 10.0549 53.3225C8.55362 53.3225 7.39617 52.2224 7.39617 50.4686C7.39617 48.6121 8.61092 47.5234 10.1465 47.5234C11.7399 47.5229 12.8171 48.6808 12.8171 50.3769ZM8.41655 50.4342C8.41655 51.649 9.1156 52.5657 10.1012 52.5657C11.0638 52.5657 11.7853 51.6604 11.7853 50.4113C11.7853 49.4716 11.3159 48.2797 10.1236 48.2797C8.93136 48.2797 8.41655 49.3799 8.41655 50.4342ZM13.9512 52.1646C14.2492 52.3595 14.7763 52.5657 15.2806 52.5657C16.014 52.5657 16.3578 52.199 16.3578 51.7406C16.3578 51.2593 16.0718 50.9957 15.3264 50.7207C14.3294 50.3654 13.8596 49.8154 13.8596 49.1507C13.8596 48.2568 14.5815 47.5234 15.7734 47.5234C16.3349 47.5234 16.8281 47.6838 17.1375 47.8672L16.8854 48.6006C16.5443 48.3905 16.1515 48.2794 15.7509 48.2797C15.155 48.2797 14.8226 48.6235 14.8226 49.0361C14.8226 49.4945 15.1554 49.7008 15.8774 49.9758C16.84 50.3425 17.3328 50.8238 17.3328 51.649C17.3328 52.623 16.5764 53.3106 15.2585 53.3106C14.6512 53.3106 14.0896 53.1617 13.7 52.9325L13.9512 52.1646ZM19.8421 46.0561V47.649H21.2856V48.4168H19.8421V51.4079C19.8421 52.0954 20.0364 52.4851 20.5984 52.4851C20.7954 52.4884 20.992 52.4653 21.1829 52.4163L21.2287 53.1727C21.0343 53.2529 20.7245 53.3102 20.3353 53.3102C19.8654 53.3102 19.4868 53.1612 19.2461 52.8862C18.9601 52.5882 18.8565 52.0954 18.8565 51.4422V48.4168H17.997V47.649H18.8565V46.3197L19.8421 46.0561ZM27.1306 47.6495C27.1072 48.0505 27.0847 48.4975 27.0847 49.1736V52.3938C27.0847 53.6659 26.8326 54.4452 26.294 54.9269C25.7554 55.4312 24.9761 55.5916 24.277 55.5916C23.6124 55.5916 22.8789 55.4312 22.4316 55.1332L22.6837 54.3654C23.0504 54.5946 23.6234 54.8009 24.311 54.8009C25.3424 54.8009 26.0987 54.2622 26.0987 52.8641V52.2453H26.0758C25.7664 52.761 25.1705 53.1736 24.311 53.1736C22.9358 53.1736 21.9502 52.0046 21.9502 50.4686C21.9502 48.5892 23.1764 47.5234 24.4485 47.5234C25.4116 47.5234 25.9387 48.0276 26.1794 48.486H26.2023L26.2481 47.6495H27.1306ZM26.0877 49.8383C26.0877 49.6664 26.0762 49.5174 26.0304 49.3799C25.847 48.7954 25.3543 48.3141 24.6208 48.3141C23.6578 48.3141 22.9706 49.1278 22.9706 50.4113C22.9706 51.5 23.5207 52.4053 24.6094 52.4053C25.2282 52.4053 25.7897 52.0157 26.0075 51.3739C26.0648 51.202 26.0881 51.0072 26.0881 50.8353L26.0877 49.8383ZM28.6887 49.3799C28.6887 48.7267 28.6772 48.1651 28.6428 47.6495H29.5257L29.5596 48.7381H29.6054C29.8576 47.9932 30.4649 47.5234 31.1411 47.5234C31.2557 47.5234 31.3355 47.5349 31.4271 47.5578V48.5089C31.3144 48.4843 31.1992 48.4728 31.0838 48.4746C30.3733 48.4746 29.8686 49.0132 29.7315 49.7695C29.7031 49.9246 29.6878 50.0818 29.6857 50.2394V53.196H28.6887V49.3799ZM32.8834 50.6061C32.9063 51.9698 33.7768 52.5314 34.7853 52.5314C35.5077 52.5314 35.9428 52.4053 36.3209 52.2449L36.4928 52.9668C36.1376 53.1273 35.5302 53.3106 34.6478 53.3106C32.9403 53.3106 31.9203 52.1876 31.9203 50.5144C31.9203 48.8413 32.9059 47.5229 34.5217 47.5229C36.3324 47.5229 36.8137 49.1159 36.8137 50.1358C36.8137 50.3421 36.7908 50.5025 36.7793 50.6057L32.8834 50.6061ZM35.8401 49.8841C35.8511 49.2424 35.5761 48.2454 34.442 48.2454C33.422 48.2454 32.9751 49.1851 32.8944 49.8841H35.8401Z" fill="black"/>
<path d="M37.9586 51.981C38.4988 52.3058 39.1161 52.4799 39.7464 52.4852C40.7663 52.4852 41.3622 51.9466 41.3622 51.1673C41.3622 50.4454 40.9496 50.0328 39.9068 49.6317C38.6462 49.1848 37.8669 48.5316 37.8669 47.4429C37.8669 46.2396 38.8639 45.3457 40.3652 45.3457C41.1559 45.3457 41.7289 45.5291 42.0727 45.7239L41.7977 46.5375C41.3467 46.2955 40.8426 46.1695 40.3308 46.1708C39.2765 46.1708 38.8754 46.8011 38.8754 47.3283C38.8754 48.0502 39.3448 48.4055 40.411 48.8181C41.7175 49.3227 42.3821 49.9526 42.3821 51.0871C42.3821 52.2789 41.4997 53.3103 39.6776 53.3103C38.9327 53.3103 38.1191 53.0926 37.7061 52.8176L37.9586 51.981ZM50.1176 54.3303C49.1214 54.0688 48.1351 53.7706 47.1609 53.4364C47.0005 53.3791 46.84 53.3218 46.6911 53.3218C44.8575 53.253 43.2875 51.9008 43.2875 49.414C43.2875 46.9386 44.8002 45.3457 46.8859 45.3457C48.983 45.3457 50.3472 46.973 50.3472 49.2535C50.3472 51.2361 49.4304 52.5081 48.1469 52.9551V53.0009C48.9147 53.1957 49.7513 53.3791 50.4045 53.4937L50.1176 54.3303ZM49.2924 49.2994C49.2924 47.7523 48.4907 46.1589 46.8515 46.1589C45.1669 46.1589 44.3418 47.7175 44.3532 49.391C44.3418 51.0298 45.2471 52.5081 46.8057 52.5081C48.399 52.5081 49.2924 51.0642 49.2924 49.2994ZM51.6413 45.4718H52.6387V52.3592H55.9392V53.1957H51.6413V45.4718Z" fill="#336791"/>
</svg>
