<svg width="61" height="61" viewBox="0 0 61 61" fill="none" xmlns="http://www.w3.org/2000/svg">
<g clip-path="url(#clip0_230_48)">
<path d="M41.309 21.4209L34.6348 23.6002L28.8286 26.1629L27.2042 26.5916C26.7903 26.9851 26.3567 27.3837 25.8875 27.7875C25.3729 28.2313 24.8935 28.6348 24.5256 28.9274C24.1168 29.2503 23.5114 29.8557 23.2038 30.2389C22.7446 30.8139 22.3815 31.4246 22.2251 31.8937C21.9476 32.7413 22.0838 33.5988 22.6186 34.3907C23.3047 35.3997 24.6718 36.4287 26.266 37.1298C27.078 37.4881 28.445 37.9473 29.4743 38.2043C31.1842 38.6382 34.4937 39.1076 36.3146 39.1781C36.6828 39.1934 37.1772 39.1934 37.1974 39.1781C37.2378 39.1528 37.5204 38.6131 37.8482 37.9421C38.9682 35.657 39.7754 33.5129 40.2144 31.6819C40.4765 30.5721 40.6832 29.094 40.8194 27.3434C40.8549 26.8541 40.87 25.2146 40.8399 24.6596C40.7941 23.7518 40.7134 23.0151 40.5874 22.2938C40.5672 22.1877 40.5621 22.0919 40.5723 22.0868C40.5925 22.0717 40.6531 22.0518 41.4754 21.8144L41.309 21.4209ZM39.7856 22.3139C39.8459 22.3139 40.0074 23.8624 40.0478 24.8411C40.058 25.048 40.0529 25.1842 40.0426 25.1842C40.0023 25.1842 39.1902 24.7051 38.6102 24.342C38.1055 24.0242 37.1471 23.3884 36.9958 23.2673C36.9452 23.232 36.9503 23.2269 37.364 23.0859C38.0652 22.8485 39.7301 22.3139 39.7856 22.3139ZM36.3854 23.4339C36.4309 23.4339 36.5469 23.4993 36.8244 23.6708C37.8633 24.3216 39.2761 25.1086 39.8814 25.371C40.0679 25.4517 40.0881 25.4213 39.6591 25.7139C38.7413 26.3394 37.596 26.955 36.1937 27.5754C36.0423 27.6446 35.8892 27.7102 35.7346 27.7721C35.7246 27.7721 35.755 27.6462 35.7951 27.4946C36.1332 26.2385 36.3248 24.9675 36.335 23.9483C36.3401 23.4439 36.3401 23.4439 36.3854 23.4288C36.3751 23.4339 36.3803 23.4339 36.3854 23.4339ZM35.6842 23.7012C35.7144 23.7313 35.6944 24.8612 35.6538 25.1691C35.5638 25.9128 35.4085 26.6471 35.1898 27.3636C35.1343 27.5501 35.0837 27.7067 35.0738 27.7167C35.0533 27.7417 34.3624 27.0659 34.1355 26.8035C33.742 26.3497 33.4344 25.8956 33.2072 25.4517C33.0912 25.2246 32.9098 24.7807 32.9248 24.7657C33.0056 24.71 35.664 23.681 35.6842 23.7012ZM32.3849 24.9977C32.39 24.9977 32.3951 24.9977 32.4003 25.0028C32.4102 25.0128 32.4455 25.0935 32.4759 25.1842C32.6371 25.6232 33.0005 26.2689 33.3132 26.6826C33.6561 27.1367 34.1054 27.6209 34.4784 27.9385C34.5995 28.0394 34.7104 28.1352 34.7255 28.1506C34.7562 28.1807 34.7661 28.1756 33.9436 28.4884C32.9905 28.8517 31.9511 29.2148 30.7606 29.5983C30.4762 29.69 30.192 29.7825 29.9082 29.8758C29.8627 29.8909 29.8777 29.8656 30.0091 29.6587C30.5993 28.7357 31.497 26.9246 32.0016 25.6434C32.0875 25.4211 32.1731 25.1993 32.1882 25.149C32.2086 25.0782 32.2337 25.0531 32.2993 25.0176C32.3346 25.0077 32.3699 24.9977 32.3849 24.9977ZM31.3761 25.4162C31.3915 25.4265 31.1339 25.9661 30.8817 26.4605C30.3924 27.4139 29.8576 28.3524 29.1413 29.4923C29.0202 29.6891 28.9042 29.8707 28.8891 29.8909C28.8638 29.9262 28.8539 29.9162 28.7731 29.7598C28.6017 29.4218 28.4604 28.9879 28.3847 28.5896C28.3088 28.196 28.3242 27.5097 28.4098 27.0861C28.4754 26.7733 28.4703 26.7784 28.6219 26.7028C29.2673 26.3747 31.3557 25.396 31.3761 25.4162ZM40.0782 25.7694V25.9814C40.0782 27.1062 39.957 28.6499 39.7805 29.7749C39.7501 29.9717 39.7248 30.1329 39.7199 30.138C39.7199 30.138 39.5735 30.0979 39.4021 30.0473C38.5982 29.7919 37.821 29.459 37.0814 29.0533C36.5921 28.7863 35.881 28.3473 35.9009 28.3271C35.906 28.322 36.1181 28.2111 36.3652 28.0798C37.3541 27.5654 38.3023 27.0104 39.1248 26.4605C39.4322 26.2536 39.8965 25.9209 39.9974 25.8299L40.0782 25.7694ZM27.5673 27.2626C27.5875 27.2626 27.5827 27.303 27.552 27.4847C27.5268 27.6638 27.5084 27.8438 27.4968 28.0243C27.4564 28.7608 27.5775 29.3058 27.9406 30.0522C28.0416 30.2591 28.1223 30.4306 28.1172 30.4354C28.0819 30.4661 24.7425 31.4447 23.6931 31.7322C23.3804 31.8178 23.108 31.8937 23.0875 31.8986C23.0525 31.9088 23.0474 31.9037 23.0625 31.8178C23.1785 31.0763 23.7434 30.1079 24.5305 29.2907C25.055 28.7457 25.4738 28.4278 26.1901 28.0192C26.7047 27.7267 27.4968 27.2879 27.5571 27.2677C27.5571 27.2626 27.5622 27.2626 27.5673 27.2626ZM35.4371 28.67C35.4422 28.6649 35.5631 28.7306 35.7093 28.8165C36.7888 29.442 38.2923 30.022 39.5735 30.3197L39.6895 30.345L39.528 30.4357C38.8573 30.8088 36.6526 31.7271 34.3979 32.5696C34.0698 32.6907 33.7471 32.8118 33.6863 32.8368C33.626 32.8621 33.5703 32.8772 33.5703 32.8723C33.5703 32.8672 33.6613 32.6907 33.7773 32.4737C34.4079 31.2932 35.0434 29.8557 35.3663 28.8568C35.4067 28.7608 35.4318 28.6752 35.4371 28.67ZM34.6348 28.9325C34.6399 28.9376 34.5995 29.0434 34.5492 29.1645C34.1102 30.229 33.535 31.3893 32.7989 32.6907C32.6121 33.0236 32.4557 33.2911 32.4506 33.2911C32.4455 33.2911 32.2942 33.2002 32.1125 33.0893C31.0429 32.4334 30.0947 31.6262 29.4743 30.8443L29.3833 30.7334L29.8425 30.6071C31.487 30.1582 32.8842 29.674 34.2717 29.0789C34.4684 28.9981 34.6299 28.9325 34.6348 28.9325ZM39.619 30.6726C39.6241 30.7888 39.3668 31.828 39.155 32.5795C38.9784 33.2101 38.8269 33.7046 38.5494 34.5772C38.4285 34.9607 38.3225 35.2786 38.3174 35.2786C38.3123 35.2786 38.2821 35.2735 38.252 35.2633C36.7536 34.9909 35.4118 34.6127 34.1508 34.1083C33.7974 33.967 33.293 33.7398 33.2626 33.7148C33.2527 33.7046 33.5555 33.5633 33.9388 33.3969C36.2341 32.3927 38.615 31.2529 39.4325 30.7635C39.528 30.703 39.6037 30.6726 39.619 30.6726ZM28.1121 31.0663C28.1223 31.0765 27.4817 31.9995 26.5836 33.2556C26.2708 33.6946 25.9077 34.209 25.7715 34.4009C25.6139 34.623 25.4608 34.8484 25.3123 35.0767L25.1003 35.4046L24.8734 35.2129C24.6061 34.9909 24.1421 34.5169 23.9353 34.2547C23.5015 33.7148 23.2089 33.1447 23.0929 32.6253C23.0372 32.383 23.0372 32.2619 23.0878 32.2468C23.1634 32.2264 24.5103 31.9088 25.7715 31.6162C26.374 31.4775 26.976 31.3363 27.5773 31.1925C27.8701 31.1218 28.1072 31.0663 28.1121 31.0663ZM28.7578 31.3134L28.9193 31.4951C29.6457 32.3074 30.3873 32.9076 31.2854 33.4322C31.4467 33.5232 31.5678 33.6036 31.5575 33.6088C31.5223 33.6343 28.4402 34.7287 27.0123 35.2231C26.5242 35.396 26.0349 35.5658 25.5446 35.7324C25.5395 35.7324 25.494 35.7022 25.4434 35.667L25.3527 35.6013L25.4991 35.3895C25.9731 34.7034 26.5685 33.9519 27.8653 32.3879L28.7578 31.3134ZM32.7835 34.1939C32.7886 34.1888 33.0104 34.2695 33.2828 34.3705C33.9388 34.6178 34.4582 34.7742 35.1545 34.9505C36.0121 35.1677 37.2531 35.3795 37.9847 35.4401C38.0956 35.45 38.1559 35.4603 38.1359 35.4753C38.1004 35.4955 37.3592 35.7426 36.8141 35.9143C35.9464 36.1865 33.2982 36.9686 31.139 37.589C30.7404 37.705 30.3975 37.8011 30.3773 37.806C30.327 37.8162 30.1601 37.7704 30.1601 37.7505C30.1601 37.7403 30.2815 37.5839 30.4276 37.4124C31.1541 36.5447 31.8754 35.5763 32.4759 34.6579C32.6422 34.4057 32.7835 34.199 32.7835 34.1939ZM31.8956 34.2195C31.9007 34.2243 31.5425 34.7995 30.917 35.7881C30.6497 36.2066 30.352 36.6809 30.246 36.8475C30.145 37.0087 29.9938 37.2612 29.9082 37.4022L29.7617 37.6595L29.6861 37.6394C29.5047 37.589 28.2281 37.1401 27.8903 37.0039C27.4895 36.8443 27.0971 36.6641 26.7149 36.464C26.3112 36.247 25.8068 35.9243 25.8472 35.9141C25.8574 35.909 26.5483 35.7224 27.3805 35.4955C29.5903 34.8951 30.816 34.547 31.6181 34.2948C31.7645 34.2493 31.8905 34.2143 31.8956 34.2195ZM38.1763 35.6923H38.1814C38.2014 35.7426 37.3842 38.0127 37.0865 38.7292C37.0211 38.8904 36.9958 38.931 36.9605 38.9259C36.8747 38.9208 35.6893 38.7542 34.9677 38.6484C33.7118 38.4568 31.603 38.0883 31.0736 37.9674L30.9525 37.9419L31.7037 37.7707C33.3183 37.4073 34.0951 37.2106 34.8821 36.9684C35.8984 36.6574 36.8912 36.2748 37.8533 35.8234C38.0097 35.7526 38.1408 35.6971 38.1763 35.6923Z" fill="url(#paint0_linear_230_48)"/>
<path d="M34.4321 5.86256C34.3212 5.84749 32.5303 6.49319 31.3751 6.96233C29.8164 7.59807 28.6057 8.20339 27.8591 8.72798C27.5816 8.92473 27.2333 9.27275 27.1781 9.40894C27.1576 9.46386 27.1472 9.52204 27.1475 9.58065L27.8238 10.2212L29.4328 10.7359L33.2618 11.4219L37.6404 12.1734L37.6859 11.7953C37.6706 11.7953 37.6606 11.7901 37.6456 11.7901L37.0706 11.6992L36.9544 11.4925C36.359 10.4433 35.7033 9.14167 35.3201 8.26395C35.0224 7.58299 34.74 6.79598 34.5834 6.23103C34.4978 5.88786 34.4876 5.86767 34.4324 5.86282L34.4321 5.86256ZM34.3514 6.11987H34.3565C34.3616 6.12498 34.3818 6.26629 34.402 6.43263C34.4876 7.13915 34.6439 7.82011 34.8913 8.55653C35.0778 9.11152 35.0778 9.08111 34.8609 9.01544C34.3465 8.87439 32.041 8.47578 30.3714 8.24377C30.1038 8.20851 29.8769 8.17324 29.8769 8.16813C29.8565 8.14795 31.0825 7.50735 31.6222 7.25515C32.3133 6.93729 34.2101 6.14517 34.3511 6.11987H34.3514ZM29.4883 8.37996L29.685 8.44537C30.7547 8.80873 33.4433 9.32335 34.9266 9.44446C35.0929 9.45954 35.2342 9.47461 35.2391 9.47461C35.2442 9.47973 35.1031 9.55536 34.9214 9.64121C34.2052 9.9992 33.4182 10.4382 32.8732 10.7762C32.712 10.8769 32.5655 10.9577 32.5454 10.9577C32.5252 10.9577 32.4194 10.9375 32.3085 10.9224L32.1066 10.8922L31.6022 10.3978C30.9887 9.80041 30.3715 9.20673 29.7507 8.61683L29.4883 8.37996ZM29.2864 8.53634L29.9978 9.42428C30.3862 9.9136 30.7797 10.3927 30.8656 10.4987C30.9514 10.6045 31.0219 10.6904 31.0171 10.6955C30.9966 10.7106 29.9878 10.5138 29.4533 10.3927C28.9032 10.2667 28.6762 10.2062 28.3382 10.1001L28.0607 10.0094V9.93864C28.0658 9.60059 28.4946 9.09619 29.221 8.58182L29.2864 8.53634ZM35.33 9.747C35.3505 9.747 35.3755 9.79248 35.4361 9.92842C35.6073 10.3068 36.1423 11.3261 36.2734 11.5229C36.3138 11.5883 36.3843 11.5934 35.6729 11.4774C33.963 11.1999 33.4131 11.1092 33.4131 11.0992C33.4131 11.0941 33.4634 11.0586 33.5291 11.0233C34.0588 10.7308 34.5936 10.3574 35.0679 9.95883C35.1839 9.86301 35.2897 9.7723 35.3098 9.75696C35.3149 9.747 35.3249 9.74189 35.33 9.747Z" fill="url(#paint1_linear_230_48)"/>
<path d="M27.2122 9.3374C27.2122 9.3374 27.1013 9.51422 27.207 9.77664C27.273 9.93788 27.4646 10.1346 27.6813 10.3365C27.6813 10.3365 29.9263 12.5258 30.1987 12.8386C31.4395 14.2713 31.9794 15.6838 32.0298 17.6311C32.0602 18.8821 31.8228 19.9819 31.2328 21.2582C30.1836 23.5485 27.969 26.0758 24.5537 28.8804L25.0533 28.7144C25.376 28.4719 25.8147 28.2148 26.8439 27.6496C29.22 26.3482 31.8936 25.1526 35.1727 23.9215C39.8944 22.1459 47.6582 20.0675 52.0772 19.3917L52.5361 19.3209L52.4656 19.21C52.0619 18.5845 51.7846 18.1961 51.4514 17.7824C50.483 16.5817 49.3076 15.6082 47.87 14.801C45.8923 13.6963 43.3345 12.8334 40.0961 12.1929C39.4859 12.0717 38.1439 11.8397 37.0543 11.6734C35.2357 11.3936 33.4195 11.0976 31.6061 10.7854C31.0158 10.6845 30.133 10.5332 29.5479 10.4073C29.2451 10.3416 28.6651 10.2054 28.211 10.049C27.8479 9.90773 27.3233 9.76617 27.2122 9.3374ZM28.5138 10.5989C28.5189 10.5938 28.5994 10.624 28.7054 10.6595C28.8971 10.7249 29.1444 10.8005 29.437 10.8813C29.6584 10.9422 29.8804 11.001 30.1029 11.0578C30.4057 11.1335 30.6579 11.2042 30.6627 11.2042C30.6982 11.2395 31.2077 12.8687 31.3792 13.4942C31.4446 13.7316 31.4952 13.9332 31.4901 13.9332C31.485 13.9383 31.4295 13.8525 31.3641 13.7365C30.7739 12.6973 29.8404 11.643 28.7609 10.7954C28.6198 10.6947 28.5138 10.604 28.5138 10.5989ZM30.9957 11.285C31.0212 11.285 31.1321 11.3001 31.268 11.3302C32.1258 11.5219 33.6643 11.8147 34.6481 11.981C34.8144 12.0063 34.9458 12.0365 34.9458 12.0467C34.9458 12.0569 34.8852 12.0919 34.8093 12.1323C34.6432 12.2182 33.972 12.6165 33.7502 12.768C33.1901 13.1411 32.6857 13.5448 32.3226 13.9082C32.2325 13.9981 32.1417 14.0872 32.0499 14.1754C32.0499 14.1754 32.0198 14.0896 31.9945 13.9838C31.8131 13.2824 31.4346 12.2432 31.0915 11.5119C31.036 11.3959 30.9905 11.2898 30.9905 11.2799C30.9905 11.2901 30.9905 11.285 30.9957 11.285ZM35.3643 12.1172C35.3947 12.1274 35.4451 12.2986 35.5457 12.6771C35.7351 13.432 35.8167 14.2099 35.7882 14.9877C35.778 15.1996 35.7678 15.3963 35.7578 15.4216L35.7425 15.472L35.4803 15.3861C34.9407 15.2149 34.0629 14.9573 33.3112 14.7455C32.8824 14.6295 32.5344 14.5235 32.5344 14.5135C32.5344 14.4831 33.1599 13.8576 33.4272 13.6205C33.9367 13.1715 35.3188 12.1021 35.3643 12.1172ZM35.7123 12.1676C35.7277 12.1525 37.801 12.5107 38.7443 12.6924C39.4455 12.8286 40.4645 13.0404 40.5251 13.0655C40.5552 13.0757 40.4494 13.1362 40.1111 13.2878C38.7796 13.888 37.791 14.4274 36.8072 15.0836C36.5499 15.2548 36.333 15.3963 36.3279 15.3963C36.3228 15.3963 36.3177 15.2499 36.3177 15.0733C36.3177 14.1151 36.126 13.1465 35.7729 12.329C35.7376 12.2483 35.7072 12.1727 35.7123 12.1676ZM41.075 13.2272C41.0903 13.2423 41.0244 13.6509 40.9638 13.8928C40.7824 14.6446 40.2931 15.7597 39.6928 16.8088C39.5868 16.9954 39.491 17.1466 39.4808 17.1518C39.4705 17.1569 39.3346 17.0812 39.1782 16.9903C38.5931 16.6474 37.9272 16.3244 37.2005 16.0218C36.9989 15.936 36.8223 15.8655 36.8172 15.8552C36.7819 15.8251 38.4063 14.7506 39.2638 14.236C39.9448 13.8223 41.0548 13.2068 41.075 13.2272ZM41.4582 13.2875C41.5037 13.2875 42.4218 13.54 42.9009 13.681C44.0865 14.0341 45.4485 14.5337 46.3364 14.9372L46.7043 15.1038L46.4473 15.1643C44.2782 15.6636 42.4218 16.2388 40.6309 16.9652C40.4847 17.0258 40.3534 17.0761 40.3434 17.0761C40.3332 17.0761 40.3838 16.9601 40.4494 16.8188C40.9891 15.6738 41.3371 14.4782 41.423 13.459C41.4281 13.3631 41.4432 13.2875 41.4582 13.2875ZM32.3175 15.3861C32.3325 15.371 33.0337 15.5376 33.4121 15.6434C33.9871 15.8049 35.2079 16.2132 35.2079 16.2439C35.2079 16.249 35.0717 16.3648 34.9105 16.5061C34.2495 17.0559 33.614 17.636 32.852 18.3726C32.6251 18.5896 32.4335 18.7661 32.4235 18.7661C32.4135 18.7661 32.4082 18.7357 32.4133 18.6954C32.5293 17.8478 32.5043 16.7585 32.3428 15.6536C32.3274 15.5123 32.3126 15.3912 32.3175 15.3861ZM47.0529 15.4014C47.0628 15.4114 46.7299 15.936 46.5181 16.2337C46.2153 16.6675 45.7714 17.2427 44.7675 18.5037C44.3252 19.0589 43.8847 19.6155 43.4459 20.1736C43.2441 20.4258 43.0775 20.6376 43.0724 20.6376C43.0673 20.6376 43.0021 20.5469 42.9313 20.4357C42.3664 19.5884 41.6903 18.8469 40.8882 18.181C40.7659 18.0775 40.6415 17.9766 40.5151 17.8782C40.4594 17.8378 40.4139 17.7975 40.4139 17.7924C40.4139 17.7773 41.2715 17.4091 41.9223 17.1466C43.0624 16.6826 44.616 16.1276 45.7814 15.7694C46.3921 15.5777 47.0427 15.3912 47.0529 15.4014ZM47.4413 15.5021C47.4612 15.497 47.5823 15.5578 47.7287 15.6434C48.9547 16.3446 50.1552 17.2476 51.1037 18.1756C51.3709 18.4383 52.0317 19.1244 52.0217 19.1292C52.0217 19.1292 51.7895 19.1497 51.5173 19.1696C49.3935 19.3311 46.6745 19.7801 44.0612 20.4104C43.9474 20.4377 43.8331 20.463 43.7183 20.4863C43.7081 20.4863 43.9049 20.2896 44.1522 20.0524C45.6858 18.5742 46.387 17.6411 47.2141 15.9764C47.3301 15.7293 47.4313 15.5174 47.4413 15.5021C47.4362 15.5021 47.4362 15.5021 47.4413 15.5021ZM36.2068 16.6525C36.2775 16.6675 36.9332 16.9752 37.4276 17.2223C37.8817 17.4494 38.5627 17.8125 38.5979 17.8429C38.603 17.8481 38.3608 17.974 38.0634 18.1204C37.1742 18.5627 36.304 19.0423 35.4553 19.558C35.213 19.7044 35.0112 19.8255 35.0063 19.8255C34.9859 19.8255 34.991 19.8051 35.1272 19.558C35.5812 18.7309 35.9446 17.742 36.1513 16.7784C36.1715 16.7028 36.1917 16.6525 36.2068 16.6525ZM35.5511 16.7733C35.5662 16.7887 35.3947 17.4091 35.2887 17.7469C35.0817 18.3877 34.7337 19.1898 34.3959 19.7951C34.3151 19.9364 34.194 20.1431 34.1284 20.2592L34.0024 20.461L33.7198 20.1886C33.3919 19.8708 33.1244 19.674 32.7815 19.4974C32.6453 19.4269 32.5395 19.3664 32.5395 19.3564C32.5395 19.316 33.4022 18.5341 34.0629 17.9689C34.5369 17.5603 35.536 16.7583 35.5511 16.7733ZM39.5615 18.423L39.8088 18.5845C40.3736 18.9527 41.0394 19.442 41.5489 19.8708C41.8367 20.1079 42.3914 20.6074 42.5026 20.7283L42.5629 20.794L42.1545 20.91C39.8441 21.5506 38.0583 22.1206 35.9747 22.8877C35.7427 22.9733 35.546 23.0438 35.5309 23.0438C35.5005 23.0438 35.4752 23.0691 35.9949 22.5898C37.3267 21.364 38.5072 20.0121 39.3849 18.6956L39.5615 18.423ZM38.5072 18.6854C38.5174 18.6956 37.8263 19.6692 37.4126 20.2188C36.9181 20.8747 36.0404 21.9742 35.4348 22.6907C35.1829 22.9884 34.966 23.2355 34.9557 23.2406C34.9404 23.2457 34.9355 23.1701 34.9355 23.054C34.9355 22.4433 34.7792 21.7928 34.5068 21.2378C34.3908 21.0058 34.3706 20.9503 34.3959 20.925C34.4917 20.8394 35.9597 20.0018 36.8877 19.5026C37.5135 19.1696 38.4919 18.6752 38.5072 18.6854ZM32.1307 20.2492C32.146 20.2492 32.262 20.3097 32.3931 20.3803C32.7002 20.5475 32.9907 20.7434 33.2609 20.9654C33.2708 20.9756 33.1397 21.0817 32.9683 21.2076C32.4163 21.6061 31.873 22.0165 31.3388 22.4385C30.8947 22.7916 30.8799 22.8018 30.93 22.7262C31.2632 22.2167 31.4295 21.929 31.6061 21.561C31.7684 21.2183 31.91 20.8662 32.03 20.5065C32.0701 20.3601 32.1207 20.2492 32.1307 20.2492ZM33.8309 21.581C33.856 21.5759 33.8864 21.6213 34.0226 21.8232C34.31 22.2517 34.5321 22.8269 34.5875 23.2912L34.5977 23.3921L33.9066 23.6594C32.6706 24.1385 31.5305 24.6127 30.7585 24.9659C30.5419 25.0668 30.1632 25.2485 29.9163 25.3696C29.669 25.4956 29.4671 25.5914 29.4671 25.5865C29.4671 25.5817 29.6235 25.4654 29.8154 25.3241C31.3237 24.2294 32.6302 23.0287 33.6089 21.8281C33.7149 21.7021 33.8107 21.5861 33.821 21.581H33.8309ZM33.049 21.7726C33.0692 21.793 32.494 22.4436 32.1005 22.842C31.127 23.8359 30.1634 24.6127 28.9678 25.3696C28.8166 25.4654 28.6804 25.551 28.665 25.5612C28.6298 25.5814 28.6753 25.5308 29.1999 24.9607C29.5075 24.6305 29.7987 24.2854 30.0725 23.9267C30.2641 23.6796 30.2996 23.6443 30.5771 23.4475C31.3186 22.9127 33.0288 21.7524 33.049 21.7726Z" fill="url(#paint2_radial_230_48)"/>
<path d="M11.2028 42.6615C11.1093 42.6615 11.0163 42.6705 10.9242 42.6705C9.04464 42.7706 7.77695 43.5978 7.03569 45.2135C6.40161 46.6743 6.47101 48.5836 7.04277 50.0538C7.70754 51.4901 8.78213 52.2483 10.5758 52.5344C10.9549 52.5968 11.2094 52.805 11.945 53.6628L12.8491 54.7228H14.4893L13.3987 53.6227C12.7958 53.0203 12.3081 52.4952 12.3081 52.449C12.3081 52.4032 12.5385 52.3021 12.818 52.2172C13.7382 51.9386 14.5021 51.2276 15.037 50.1379C15.4695 49.263 15.5318 48.9925 15.5941 47.9037C15.7561 44.6634 14.0474 42.6375 11.2023 42.6606L11.2028 42.6615ZM12.6404 51.1355C11.8425 51.5217 10.6839 51.5991 9.92754 51.3215C9.14568 51.0345 8.38837 50.2224 8.04796 49.3031C7.66977 48.2975 7.7236 46.4429 8.15655 45.6077C8.85201 44.2777 9.77268 43.6663 11.1169 43.6663C13.1121 43.6663 14.2471 44.8877 14.3949 47.1837C14.512 49.1006 13.8704 50.5387 12.6414 51.135L12.6404 51.1355ZM40.9735 45.4297C40.2856 45.4297 39.7591 45.7083 39.4041 46.2569L39.1255 46.6913V45.5614H37.9353V52.3347H39.1251V50.1695C39.1251 48.1898 39.1501 47.9585 39.4268 47.4169C39.8078 46.6738 40.464 46.3036 41.0981 46.4807L41.5231 46.6048V45.4311H40.974L40.9735 45.4297ZM33.9783 45.3674C33.7336 45.3698 33.4898 45.3983 33.2512 45.4524C31.6582 45.8693 30.7602 47.3943 30.815 48.9632C30.815 50.2771 31.0708 50.9344 31.7045 51.6232C33.0033 52.6888 34.1785 52.7738 35.7634 52.2021C36.0335 52.0868 36.3281 51.9537 36.3281 51.9537V50.8881L35.7634 51.1808C34.4806 51.7394 33.5142 51.7394 32.7399 51.0817C32.2465 50.5788 32.0288 49.9759 31.9292 49.2875H36.7299V48.3749C36.7299 46.5128 35.609 45.3372 33.9773 45.3674H33.9783ZM32.0368 48.3371C32.0368 48.3371 32.2144 47.1757 32.8725 46.7205C33.175 46.5054 33.5368 46.3895 33.9079 46.3886C34.2644 46.3886 34.6194 46.5038 34.9131 46.7285C35.516 47.1922 35.6166 48.3291 35.6166 48.3291H32.0373L32.0368 48.3371ZM3.33224 47.1162C2.04141 46.3338 1.4687 45.7701 1.53905 45.1049C1.73924 43.2654 4.01212 43.5199 5.27131 44.2158L5.28028 42.9784C5.28028 42.9784 4.58435 42.6767 3.58672 42.6606C2.05652 42.6379 1.06692 43.1394 0.603747 44.1606C-0.0775487 45.6681 0.525372 46.8046 2.70476 48.0727C3.92807 48.7842 4.46867 49.4023 4.46867 50.076C4.46867 51.4679 2.79069 51.9542 1.05936 51.0807C0.703368 50.9032 0.401672 50.7549 0.385147 50.7549C0.322825 51.1497 0.35493 52.0939 0.35493 52.0939C0.35493 52.0939 0.88703 52.3173 1.68494 52.4716C3.66321 52.8659 5.46441 51.9377 5.63438 50.4306C5.78263 49.0156 5.27084 48.2729 3.33224 47.1148V47.1162ZM51.5116 45.3518C51.264 45.3551 51.0174 45.3838 50.7756 45.4373C49.1844 45.8541 48.2879 47.3792 48.3488 48.9485C48.3488 50.2606 48.6037 50.9112 49.2373 51.5991C50.5362 52.6662 51.7113 52.7511 53.3039 52.1789C53.4922 52.0982 53.6799 52.0162 53.8671 51.9329V50.8654L53.3034 51.1596C52.0177 51.7167 51.0513 51.7167 50.2798 51.0585C49.7836 50.5566 49.5683 49.9608 49.4677 49.2649H54.2609V48.3518C54.2609 46.4991 53.14 45.322 51.5088 45.3537L51.5116 45.3518ZM49.5697 48.3215C49.5697 48.3215 49.7491 47.162 50.4059 46.6974C50.708 46.4823 51.0694 46.3662 51.4403 46.365C51.7954 46.365 52.1523 46.4802 52.446 46.7049C53.0489 47.1691 53.1499 48.3135 53.1499 48.3135H49.5711L49.5697 48.3215ZM27.7456 47.1308C26.4547 46.3508 25.8835 45.7852 25.9529 45.1195C26.1531 43.2796 28.4264 43.535 29.6851 44.2305L29.6946 42.9935C29.6946 42.9935 28.9982 42.6913 28.001 42.6771C26.4703 42.6545 25.4812 43.1563 25.0171 44.1776C24.3367 45.6846 24.9477 46.8216 27.1195 48.0893C28.3414 48.8003 28.882 49.4103 28.882 50.084C28.882 51.4759 27.2045 51.9698 25.4732 51.0883C25.1186 50.9112 24.8169 50.7649 24.7994 50.7649C24.7376 51.1591 24.7692 52.1038 24.7692 52.1038C24.7692 52.1038 25.2952 52.3191 26.0903 52.4816C28.0709 52.8767 29.8721 51.949 30.0421 50.4419C30.1889 49.034 29.6785 48.2923 27.7456 47.1322V47.1308ZM58.5068 45.4136C57.8189 45.4136 57.2863 45.6922 56.9374 46.2418L56.6589 46.6743V45.5468H55.4686V52.3182H56.6584V50.1534C56.6584 48.1742 56.682 47.9419 56.9596 47.4009C57.3411 46.6591 57.9974 46.288 58.631 46.4665L59.0569 46.5902V45.4136H58.5068ZM18.2768 47.0921V42.7777H17.0767V52.3333H22.1248V51.2049H18.2768V47.0921ZM46.0372 48.4367L45.048 51.0113L44.0962 48.4221L43.1302 45.5534H41.9012C42.7075 47.8277 43.5527 50.088 44.4366 52.3333C44.8157 52.3418 45.1949 52.3333 45.5735 52.3333L46.9097 48.9783L48.2704 45.5543H47.0962C47.0962 45.5543 46.5768 46.9141 46.0362 48.4372L46.0372 48.4367ZM21.0436 40.1739C21.2367 40.1739 21.3981 40.112 21.5308 39.9789C21.5955 39.9172 21.6467 39.8429 21.6813 39.7605C21.7158 39.6781 21.7329 39.5894 21.7315 39.5001C21.7315 39.3065 21.6625 39.1455 21.5308 39.0214C21.4675 38.9599 21.3925 38.9117 21.3103 38.8797C21.2281 38.8477 21.1403 38.8324 21.0521 38.8349C20.8571 38.8349 20.6961 38.8972 20.5648 39.0284C20.4317 39.1597 20.3712 39.3212 20.3712 39.5072C20.3712 39.7022 20.4336 39.8637 20.5648 39.9859C20.689 40.1101 20.85 40.172 21.0436 40.172V40.1739ZM20.6177 39.0742C20.7329 38.9595 20.8731 38.9057 21.0521 38.9057C21.2206 38.9057 21.3608 38.9595 21.4779 39.0742C21.5931 39.1899 21.6555 39.3301 21.6555 39.5001C21.6566 39.5804 21.6415 39.6602 21.611 39.7345C21.5805 39.8088 21.5352 39.8762 21.4779 39.9326C21.3608 40.0478 21.2206 40.1026 21.0521 40.1026C20.8812 40.1026 20.7419 40.0497 20.6271 39.9326C20.5699 39.8762 20.5246 39.8088 20.4941 39.7345C20.4636 39.6602 20.4485 39.5804 20.4496 39.5001C20.4496 39.3301 20.502 39.1899 20.6177 39.0742ZM20.9038 39.5624H20.9822C21.0374 39.5624 21.0913 39.6153 21.1375 39.7163L21.2305 39.9255H21.3769L21.2617 39.6932C21.2145 39.6002 21.1687 39.5464 21.1144 39.5313C21.1829 39.5152 21.2371 39.4921 21.2759 39.4463C21.2946 39.4251 21.3089 39.4005 21.318 39.3737C21.3271 39.347 21.3307 39.3187 21.3287 39.2905C21.3306 39.2598 21.3254 39.2292 21.3134 39.2009C21.3015 39.1727 21.2831 39.1476 21.2598 39.1276C21.2065 39.0832 21.1215 39.0596 21.0115 39.0596H20.7655V39.9255H20.8892V39.562L20.9038 39.5624ZM20.9038 39.1597H21.0124C21.0903 39.1597 21.1451 39.1757 21.1758 39.1989C21.2046 39.2215 21.2131 39.2518 21.2131 39.3065C21.2131 39.4071 21.1507 39.4538 21.0355 39.4538H20.9029V39.1597H20.9038ZM1.07541 39.4855C1.07541 39.1833 1.06644 38.959 1.05936 38.8273H1.06644C1.09713 38.9831 1.13585 39.0993 1.16701 39.1767L2.31903 41.7513H2.5126L3.66462 39.1536C3.69625 39.0827 3.72694 38.976 3.76519 38.8278H3.77416C3.75418 39.0469 3.74378 39.2668 3.743 39.4869V41.7588H4.1377V38.3811H3.6429L2.58342 40.7314C2.54439 40.8243 2.49026 40.9631 2.42101 41.1479H2.40496C2.36386 41.0106 2.31241 40.8766 2.25104 40.747L1.21517 38.3736H0.689676V41.7517H1.0688V39.4869L1.07541 39.4855ZM5.00172 39.4911H5.3426V41.595H5.00172V39.4911ZM5.17216 38.7197C5.20497 38.7208 5.23767 38.7151 5.26815 38.7029C5.29864 38.6907 5.32625 38.6723 5.34921 38.6488C5.3736 38.6262 5.39312 38.5988 5.40659 38.5684C5.42006 38.5379 5.42721 38.5051 5.42759 38.4718C5.429 38.4383 5.4228 38.4049 5.40947 38.3742C5.39615 38.3435 5.37603 38.3161 5.35063 38.2943C5.3269 38.2712 5.29882 38.253 5.26802 38.2409C5.23722 38.2287 5.20432 38.2228 5.17122 38.2234C5.1384 38.2223 5.10571 38.228 5.07522 38.2402C5.04473 38.2524 5.01713 38.2708 4.99416 38.2943C4.97002 38.3172 4.9507 38.3447 4.93732 38.3752C4.92395 38.4057 4.91678 38.4385 4.91626 38.4718C4.91626 38.5487 4.93987 38.6026 4.99416 38.6488C5.0418 38.6945 5.10526 38.7198 5.17122 38.7197H5.17216ZM7.76987 41.6413V41.2706C7.58337 41.4099 7.38271 41.4788 7.17544 41.4788C6.92757 41.4788 6.72597 41.3939 6.57913 41.231C6.43277 41.0695 6.35439 40.8452 6.35439 40.5657C6.35439 40.273 6.43277 40.0407 6.59424 39.8637C6.74942 39.6937 6.95039 39.6085 7.19716 39.6082C7.39829 39.6082 7.5914 39.6705 7.76987 39.7947V39.4C7.60745 39.315 7.42237 39.2758 7.21274 39.2758C6.82653 39.2758 6.52484 39.4 6.29963 39.6394C6.0763 39.8788 5.9611 40.2041 5.9611 40.5969C5.9611 40.9463 6.0612 41.2399 6.26988 41.4642C6.48707 41.6946 6.76468 41.8117 7.10462 41.8117C7.36808 41.8041 7.58337 41.7494 7.76987 41.6413ZM8.74389 40.5195C8.74389 40.2423 8.80621 40.018 8.92141 39.8632C9.02937 39.7244 9.16079 39.6548 9.31565 39.6545C9.4469 39.6545 9.54039 39.6781 9.60837 39.7324V39.3297C9.55549 39.3065 9.47806 39.299 9.37797 39.299C9.23869 39.299 9.11499 39.3462 9.00545 39.4321C8.89025 39.5232 8.79818 39.6625 8.74389 39.8396H8.73492V39.3457H8.34965V41.7574H8.73586V40.5199L8.74389 40.5195ZM10.9629 41.8051C11.3265 41.8051 11.6192 41.688 11.8364 41.4557C12.0526 41.2247 12.1608 40.9156 12.1608 40.5284C12.1608 40.1342 12.0616 39.8325 11.8595 39.6082C11.6589 39.384 11.3808 39.2754 11.0172 39.2754C10.6537 39.2754 10.361 39.384 10.1438 39.5931C9.91149 39.8235 9.7892 40.1493 9.7892 40.5667C9.7892 40.9302 9.88835 41.2314 10.098 41.4557C10.3142 41.688 10.6003 41.8041 10.9634 41.8041L10.9629 41.8051ZM10.4134 39.8405C10.5607 39.6853 10.7539 39.6079 10.9932 39.6082C11.2415 39.6082 11.4275 39.6852 11.5659 39.8405C11.7051 40.0029 11.7745 40.2338 11.7745 40.544C11.7745 40.8377 11.7122 41.0695 11.581 41.2244C11.4502 41.3868 11.2566 41.4727 11.0012 41.4727C10.7533 41.4727 10.5607 41.3868 10.4134 41.2244C10.267 41.0615 10.1971 40.8377 10.1971 40.5435C10.182 40.2508 10.2595 40.0119 10.4134 39.8405ZM13.8534 41.595C14.0007 41.4637 14.0786 41.3023 14.0786 41.1002C14.0803 41.0186 14.0654 40.9375 14.0349 40.8618C14.0044 40.7861 13.9589 40.7173 13.9011 40.6597C13.8071 40.5667 13.6622 40.4822 13.4516 40.3972C13.2656 40.3193 13.1504 40.2503 13.088 40.196C13.0549 40.1639 13.0289 40.1252 13.0117 40.0825C12.9945 40.0397 12.9864 39.9938 12.9879 39.9477C12.9879 39.8476 13.0271 39.7706 13.1036 39.7083C13.1815 39.6465 13.2807 39.6163 13.4138 39.6163C13.6216 39.6163 13.8005 39.671 13.9629 39.7876V39.4005C13.8016 39.3217 13.6239 39.2824 13.4445 39.2858C13.1966 39.2858 12.987 39.3542 12.8331 39.4859C12.7567 39.5451 12.6952 39.6212 12.6536 39.7084C12.6119 39.7956 12.5912 39.8913 12.5932 39.9878C12.5932 40.1649 12.6466 40.3122 12.7476 40.4203C12.8326 40.5124 12.978 40.6068 13.1806 40.6908C13.3742 40.7758 13.5049 40.8528 13.5748 40.9151C13.6073 40.9439 13.6331 40.9794 13.6504 41.0192C13.6677 41.059 13.676 41.1021 13.6749 41.1455C13.6749 41.3707 13.5205 41.4869 13.2193 41.4869C12.9873 41.4872 12.7783 41.4104 12.5923 41.2565V41.6729C12.7608 41.7744 12.9629 41.8202 13.1867 41.8202C13.4728 41.8051 13.6971 41.7352 13.8515 41.5959L13.8534 41.595ZM15.6938 39.2758C15.3302 39.2758 15.0375 39.384 14.8203 39.5931C14.5899 39.824 14.4662 40.1493 14.4662 40.5667C14.4662 40.9302 14.5663 41.2314 14.7745 41.4557C14.9917 41.688 15.2773 41.8046 15.6409 41.8046C16.0129 41.8046 16.2967 41.6875 16.5139 41.4552C16.7311 41.2239 16.8396 40.9146 16.8396 40.5275C16.8396 40.1332 16.7381 39.832 16.5375 39.6073C16.3288 39.383 16.0502 39.2749 15.6957 39.2749L15.6938 39.2758ZM16.444 40.5435C16.444 40.8377 16.3817 41.0695 16.2504 41.2244C16.1192 41.3868 15.9261 41.4727 15.6706 41.4727C15.4223 41.4727 15.2301 41.3868 15.0828 41.2244C14.9365 41.0615 14.8666 40.8377 14.8666 40.5435C14.8666 40.2333 14.9435 39.994 15.0989 39.8325C15.2452 39.6779 15.4385 39.6005 15.6787 39.6002C15.918 39.6002 16.1107 39.6781 16.2499 39.8325C16.3736 40.0025 16.444 40.2343 16.444 40.5435ZM17.4884 41.7503H17.8741V39.6625H18.4388V39.3377H17.8741V38.9656C17.8741 38.6267 18.0049 38.4567 18.2764 38.4567C18.3675 38.4567 18.461 38.4798 18.5299 38.5185V38.1706C18.461 38.1394 18.3675 38.1323 18.2513 38.1323C18.0436 38.1323 17.8736 38.1946 17.7339 38.3259C17.5715 38.4798 17.4855 38.68 17.4855 38.9515V39.3467H17.0776V39.6715H17.4855V41.7513L17.4884 41.7503ZM19.0729 41.0922C19.0729 41.5643 19.2806 41.8041 19.7065 41.8041C19.8609 41.8041 19.977 41.7796 20.07 41.7239V41.3934C19.998 41.4459 19.9108 41.4733 19.8217 41.4713C19.6904 41.4713 19.5984 41.4401 19.5445 41.3702C19.4893 41.3008 19.4581 41.1842 19.4581 41.0228V39.6616H20.07V39.3372H19.4581V38.6262C19.3255 38.672 19.1951 38.7112 19.0714 38.7499V39.3367H18.655V39.6616H19.0714V41.0917L19.0729 41.0922ZM60.5644 45.5378C60.501 45.4764 60.4261 45.4284 60.3438 45.3964C60.2616 45.3645 60.1738 45.3493 60.0857 45.3518C59.8907 45.3518 59.7292 45.4141 59.5979 45.5468C59.4667 45.6771 59.4044 45.8395 59.4044 46.0255C59.4044 46.2191 59.4667 46.3796 59.597 46.5043C59.7276 46.6283 59.8902 46.6903 60.0847 46.6903C60.2769 46.6903 60.4388 46.6285 60.5724 46.4967C60.7027 46.3645 60.7717 46.2111 60.7717 46.0185C60.7646 45.8235 60.6947 45.662 60.5635 45.5383L60.5644 45.5378ZM60.5025 46.4509C60.4469 46.5067 60.3804 46.5505 60.3071 46.5796C60.2339 46.6087 60.1555 46.6224 60.0767 46.62C59.9081 46.62 59.7684 46.5661 59.6513 46.4509C59.594 46.3942 59.5488 46.3265 59.5183 46.2518C59.4878 46.1772 59.4726 46.0972 59.4738 46.0166C59.4738 45.848 59.5271 45.7083 59.6437 45.5912C59.7589 45.476 59.8987 45.4226 60.0767 45.4226C60.2452 45.4226 60.3855 45.476 60.5025 45.5912C60.6173 45.7083 60.6796 45.848 60.6796 46.0161C60.6796 46.196 60.6263 46.3338 60.5025 46.4509ZM60.1551 46.0567C60.216 46.0442 60.2721 46.0147 60.317 45.9717C60.3545 45.9288 60.3737 45.8728 60.3704 45.8159C60.3707 45.746 60.3477 45.6919 60.3014 45.6535C60.2481 45.6091 60.1621 45.585 60.0531 45.585H59.8061V46.45H59.9303V46.0864H60.0078C60.0606 46.0864 60.114 46.1398 60.1621 46.2408L60.2542 46.4495H60.4015L60.2863 46.2167C60.2462 46.1157 60.1999 46.0694 60.1532 46.0543L60.1551 46.0567ZM60.0696 45.9788H59.9365V45.6861H60.0455C60.1229 45.6861 60.1768 45.7002 60.2079 45.7238C60.2391 45.7474 60.2457 45.7772 60.2457 45.8324C60.2457 45.9325 60.1843 45.9788 60.0687 45.9788H60.0696ZM38.5004 39.2381H38.6081V38.3717H38.8947V38.2631H38.2138V38.3717H38.5004V39.2381ZM39.1562 38.5865C39.1562 38.503 39.1562 38.434 39.1501 38.3948C39.1572 38.4406 39.1732 38.4718 39.1803 38.4949L39.5127 39.2381H39.5656L39.8994 38.4874C39.9083 38.4647 39.9154 38.4345 39.9301 38.3948C39.923 38.4718 39.923 38.5336 39.923 38.5809V39.2371H40.0382V38.2631H39.8994L39.5977 38.9354C39.5906 38.959 39.5665 39.0063 39.5519 39.0596H39.5424C39.5368 39.0284 39.5207 38.9973 39.4985 38.9444L39.1968 38.2636H39.041V39.2385H39.1496V38.5879L39.1562 38.5865Z" fill="#231F1F"/>
</g>
<defs>
<linearGradient id="paint0_linear_230_48" x1="27.1092" y1="35.894" x2="29.5216" y2="34.4685" gradientUnits="userSpaceOnUse">
<stop stop-color="#909CA9"/>
<stop offset="1" stop-color="#EDEDEE"/>
</linearGradient>
<linearGradient id="paint1_linear_230_48" x1="27.1685" y1="9.0197" x2="29.1096" y2="9.0197" gradientUnits="userSpaceOnUse">
<stop stop-color="#939FAB"/>
<stop offset="1" stop-color="#DCDEE1"/>
</linearGradient>
<radialGradient id="paint2_radial_230_48" cx="0" cy="0" r="1" gradientUnits="userSpaceOnUse" gradientTransform="translate(36.9647 17.9181) rotate(-171.461) scale(2.50394 5.00924)">
<stop stop-color="#EE352C"/>
<stop offset="1" stop-color="#A91D22"/>
</radialGradient>
<clipPath id="clip0_230_48">
<rect width="60.4337" height="60.4337" fill="white" transform="translate(0.337891 0.0756836)"/>
</clipPath>
</defs>
</svg>
