<svg width="61" height="61" viewBox="0 0 61 61" fill="none" xmlns="http://www.w3.org/2000/svg">
<g clip-path="url(#clip0_230_15)">
<path d="M0.688477 43.118H2.68051V35.2537L5.76388 42.1089C6.12688 42.9401 6.62418 43.2317 7.60188 43.2317C8.57958 43.2317 9.05669 42.9401 9.41969 42.1089L12.5031 35.2537V43.1176H14.4951V35.2669C14.4951 34.5 14.1889 34.1295 13.5559 33.9388C12.0424 33.4674 11.0281 33.8745 10.5679 34.8963L7.54318 41.6632L4.61384 34.8963C4.17382 33.8745 3.1393 33.4674 1.62767 33.9388C0.994654 34.1295 0.688477 34.5 0.688477 35.2669L0.688477 43.118ZM16.1523 36.716H18.1425V41.049C18.1241 41.2838 18.2176 41.836 19.3089 41.8544H23.64V36.694H25.6358C25.6452 36.694 25.6321 43.7304 25.6321 43.76C25.6429 45.4951 23.4804 45.8713 22.4825 45.9009H16.1946V44.5616L22.4937 44.5597C23.7757 44.4259 23.6236 43.7872 23.6236 43.5745V43.0518H19.3916C17.4216 43.0335 16.1687 42.1732 16.1523 41.1842C16.1504 41.0946 16.1946 36.7602 16.1523 36.716Z" fill="#00618A"/>
<path d="M27.1689 43.1186H32.8957C33.5653 43.1186 34.2167 42.9773 34.7337 42.7354C35.5959 42.341 36.0157 41.8038 36.0157 41.1012V39.6464C36.0157 39.0721 35.5386 38.5349 34.5994 38.1789C34.1021 37.9864 33.4878 37.8854 32.8952 37.8854H30.481C29.6775 37.8854 29.2943 37.6431 29.199 37.1078C29.1807 37.0435 29.1807 36.9923 29.1807 36.9279V36.0216C29.1807 35.9704 29.1807 35.9188 29.199 35.8549C29.2943 35.4478 29.5052 35.3322 30.2133 35.2679L30.4059 35.2552H36.0922V33.9291H30.5017C29.6982 33.9291 29.2765 33.9803 28.8928 34.0944C27.7062 34.4649 27.1887 35.0519 27.1887 36.0737V37.235C27.1887 38.1282 28.203 38.8951 29.9072 39.0731L30.4815 39.0989H32.5505C32.6275 39.0989 32.7027 39.0989 32.7614 39.1116C33.3925 39.1627 33.6602 39.2783 33.8527 39.5079C33.9518 39.5995 34.0086 39.73 34.0049 39.8639V41.027C34.0049 41.1665 33.9095 41.3464 33.7189 41.4985C33.5465 41.6525 33.2587 41.7535 32.8769 41.7793L32.666 41.792H27.1689V43.1186ZM48.4403 40.8073C48.4403 42.1738 49.4565 42.9388 51.5035 43.0928L52.0797 43.1186H57.2692V41.7906H52.0411C50.8728 41.7906 50.4323 41.4971 50.4323 40.7946V33.9263H48.4422V40.8068L48.4403 40.8073ZM37.2874 40.8768V36.1423C37.2874 34.9406 38.1331 34.2108 39.802 33.9812C39.9801 33.9555 40.1598 33.9427 40.3397 33.9427H44.1186C44.3111 33.9427 44.4835 33.9554 44.6765 33.9812C46.3459 34.2104 47.1897 34.9406 47.1897 36.1423V40.8768C47.1897 41.8526 46.8319 42.3738 46.0049 42.7148L47.9679 44.4852H45.6546L44.0679 43.0524L42.4703 43.1534H40.3407C39.9449 43.1521 39.5511 43.0965 39.1704 42.9881C37.903 42.6434 37.2883 41.9775 37.2883 40.8768H37.2874ZM39.4372 40.7613C39.4372 40.8256 39.4555 40.8895 39.4757 40.9669C39.5912 41.5173 40.1087 41.8235 40.8953 41.8235H42.7041L41.0422 40.3231H43.3555L44.8047 41.6328C45.0723 41.4896 45.2465 41.2731 45.309 40.9928C45.3273 40.9284 45.3273 40.8646 45.3273 40.8002V36.2602C45.3273 36.209 45.3273 36.1446 45.309 36.0803C45.1935 35.5684 44.676 35.275 43.9077 35.275H40.8957C40.0134 35.275 39.4376 35.6581 39.4376 36.2602L39.4372 40.7613Z" fill="#E48E00"/>
<path d="M59.02 31.7236C57.7967 31.6907 56.8608 31.8043 56.0611 32.142C55.8338 32.2373 55.4704 32.2392 55.4337 32.5238C55.5586 32.6557 55.5788 32.852 55.6779 33.0117C55.8686 33.3216 56.1917 33.7344 56.4795 33.9509L57.4535 34.6477C58.0513 35.0126 58.7209 35.2221 59.299 35.5869C59.6385 35.8034 59.9757 36.0748 60.3077 36.319C60.4711 36.4383 60.581 36.6271 60.7956 36.7022V36.6675C60.6838 36.5242 60.6542 36.328 60.5514 36.1796L60.0982 35.7264C59.6563 35.1394 59.0947 34.6238 58.4969 34.1946C58.0198 33.8532 56.9562 33.3911 56.7561 32.837L56.7214 32.8022C57.059 32.7656 57.4553 32.6426 57.7653 32.5599C58.2898 32.4186 58.7575 32.4552 59.2971 32.3157L60.0292 32.1049V31.9673C59.7559 31.6865 59.5615 31.3159 59.2624 31.061C58.4847 30.3988 57.6333 29.7348 56.7566 29.1807C56.2705 28.8745 55.6709 28.6763 55.1553 28.4157C54.9829 28.3279 54.6781 28.2838 54.5626 28.1368C54.2931 27.7921 54.1461 27.3554 53.9371 26.9534L52.6842 24.3082C52.4203 23.7047 52.2475 23.1083 51.9174 22.5674C50.3381 19.9681 48.6358 18.3997 45.9995 16.8589C45.4402 16.5307 44.7631 16.402 44.0516 16.2334L42.9016 16.1639C42.6687 16.0649 42.4264 15.7789 42.2066 15.6413C41.3336 15.089 39.0936 13.8897 38.4461 15.4671C38.0389 16.4631 39.057 17.4351 39.4219 17.94C39.6769 18.294 40.0051 18.6904 40.1869 19.0881C40.308 19.3487 40.3282 19.6108 40.431 19.8878C40.6842 20.5702 40.9044 21.3112 41.2326 21.9423C41.3979 22.2617 41.5792 22.5974 41.7887 22.8815C41.9169 23.0557 42.1371 23.1346 42.1718 23.4042C41.9572 23.7052 41.9446 24.171 41.8234 24.5523C41.2787 26.2673 41.4839 28.3988 42.2766 29.67C42.5189 30.0588 43.0908 30.8952 43.8779 30.5745C44.5658 30.2936 44.4118 29.4263 44.6081 28.6594C44.6541 28.4871 44.6264 28.3584 44.7128 28.2429V28.2777L45.3402 29.5305C45.8042 30.2772 46.626 31.0567 47.3233 31.5832C47.6863 31.8565 47.9709 32.3298 48.4386 32.4895V32.4528H48.4039C48.3123 32.3134 48.1709 32.2547 48.0554 32.141C47.7821 31.8734 47.4792 31.5414 47.2557 31.2347C46.6208 30.3744 46.0596 29.4315 45.5496 28.45C45.3055 27.9823 45.0927 27.4648 44.8875 26.9881C44.8086 26.8045 44.8105 26.5261 44.6452 26.4321C44.4198 26.7806 44.0878 27.0633 43.9131 27.4761C43.6342 28.1344 43.5994 28.9398 43.4947 29.7729L43.4252 29.8076C42.941 29.6902 42.7701 29.1915 42.5907 28.7637C42.1338 27.6813 42.0497 25.9367 42.4512 24.6913C42.5541 24.3687 43.0237 23.3521 42.833 23.0553C42.7433 22.758 42.4442 22.5857 42.277 22.3584C42.0585 22.0536 41.8717 21.7273 41.7196 21.3844C41.3472 20.5387 41.173 19.5925 40.7804 18.7392C40.5935 18.3302 40.2761 17.9174 40.0155 17.5544C39.7257 17.1529 39.4026 16.8575 39.1791 16.371C39.1002 16.1987 38.9922 15.9216 39.1096 15.7436C39.1462 15.6244 39.2012 15.5751 39.3186 15.5366C39.5205 15.3806 40.0835 15.5877 40.2925 15.6741C40.8518 15.9071 41.3181 16.1273 41.791 16.441C42.0164 16.5913 42.246 16.8829 42.5212 16.9637H42.8349C43.3247 17.0754 43.8732 16.9965 44.332 17.136C45.1411 17.3816 45.8676 17.7653 46.5241 18.1818C48.5307 19.4474 50.171 21.2506 51.2933 23.4023C51.475 23.7489 51.552 24.079 51.7117 24.4462C52.0329 25.1872 52.4363 25.9503 52.7556 26.6749C53.0749 27.3995 53.3849 28.1279 53.8343 28.7294C54.071 29.045 54.9862 29.2136 55.4009 29.3897C55.6925 29.5127 56.1696 29.6409 56.4448 29.8081C56.9731 30.1255 57.483 30.5031 57.9785 30.852C58.2241 31.0281 58.9839 31.4099 59.0224 31.7231L59.02 31.7236ZM43.459 18.4612C43.2484 18.4578 43.0382 18.4812 42.8335 18.5307V18.5655H42.8683C42.9894 18.8167 43.204 18.9782 43.3543 19.1928L43.7027 19.9231L43.7375 19.8902C43.954 19.738 44.0512 19.4938 44.0512 19.1233C43.9634 19.0318 43.9521 18.9181 43.8769 18.8096C43.7779 18.6645 43.5858 18.5842 43.459 18.4612Z" fill="#00618A"/>
</g>
<defs>
<clipPath id="clip0_230_15">
<rect width="60.1084" height="60.1084" fill="white" transform="translate(0.688477 0.238281)"/>
</clipPath>
</defs>
</svg>
